%TF.GenerationSoftware,KiCad,Pcbnew,7.0.1*%
%TF.CreationDate,2023-09-28T18:09:22+08:00*%
%TF.ProjectId,PD_Fan,50445f46-616e-42e6-9b69-6361645f7063,rev?*%
%TF.SameCoordinates,Original*%
%TF.FileFunction,Copper,L2,Bot*%
%TF.FilePolarity,Positive*%
%FSLAX46Y46*%
G04 Gerber Fmt 4.6, Leading zero omitted, Abs format (unit mm)*
G04 Created by KiCad (PCBNEW 7.0.1) date 2023-09-28 18:09:22*
%MOMM*%
%LPD*%
G01*
G04 APERTURE LIST*
%TA.AperFunction,ComponentPad*%
%ADD10R,1.700000X1.700000*%
%TD*%
%TA.AperFunction,ComponentPad*%
%ADD11O,1.700000X1.700000*%
%TD*%
%TA.AperFunction,ComponentPad*%
%ADD12O,2.100000X1.000000*%
%TD*%
%TA.AperFunction,ComponentPad*%
%ADD13O,1.600000X1.000000*%
%TD*%
%TA.AperFunction,ViaPad*%
%ADD14C,0.609600*%
%TD*%
%TA.AperFunction,Conductor*%
%ADD15C,0.177800*%
%TD*%
%TA.AperFunction,Conductor*%
%ADD16C,0.254000*%
%TD*%
G04 APERTURE END LIST*
D10*
%TO.P,J1,1,Pin_1*%
%TO.N,GND*%
X36691200Y3572000D03*
D11*
%TO.P,J1,2,Pin_2*%
%TO.N,USB-VIN*%
X36691200Y6112000D03*
%TO.P,J1,3,Pin_3*%
%TO.N,/Sense*%
X36691200Y8652000D03*
%TO.P,J1,4,Pin_4*%
%TO.N,/Control*%
X36691200Y11192000D03*
%TD*%
D12*
%TO.P,J2,S1,SHIELD*%
%TO.N,GND*%
X6019000Y12892000D03*
D13*
X1839000Y12892000D03*
D12*
X6019000Y4152000D03*
D13*
X1839000Y4152000D03*
%TD*%
D14*
%TO.N,GND*%
X28041600Y5080000D03*
X39370000Y7890000D03*
X1270000Y7890000D03*
X20574000Y10811000D03*
X16002000Y12462000D03*
X23241000Y4080000D03*
X3810000Y7890000D03*
X39370000Y10430000D03*
X28194000Y13478000D03*
X10160000Y8093200D03*
X19177000Y8398000D03*
X7620000Y1270000D03*
X44450000Y7890000D03*
X6350000Y15510000D03*
X25958800Y9160000D03*
X6350000Y2810000D03*
X44450000Y10430000D03*
X11430000Y4842000D03*
X22428200Y9271000D03*
X3810000Y2810000D03*
X41910000Y12700000D03*
X15748000Y4080000D03*
X41910000Y10430000D03*
X41910000Y5350000D03*
X5080000Y1270000D03*
X15494000Y11954000D03*
X30861000Y6620000D03*
X16002000Y10430000D03*
X17399000Y4080000D03*
X39370000Y2810000D03*
X16510000Y18050000D03*
X46990000Y12700000D03*
X44450000Y12700000D03*
X8890000Y15510000D03*
X31750000Y11700000D03*
X20066000Y10303000D03*
X2540000Y1270000D03*
X41910000Y7890000D03*
X1270000Y15510000D03*
X13970000Y15510000D03*
X26619200Y8499600D03*
X3810000Y15510000D03*
X20193000Y4080000D03*
X2540000Y9160000D03*
X46990000Y5350000D03*
X11176000Y8093200D03*
X19050000Y15510000D03*
X26619200Y9820400D03*
X15494000Y10938000D03*
X44450000Y5350000D03*
X34925000Y9795000D03*
X46990000Y7890000D03*
X25908000Y4080000D03*
X31496000Y6239000D03*
X32766000Y9287000D03*
X44450000Y2810000D03*
X30226000Y7509000D03*
X2540000Y6620000D03*
X39370000Y12700000D03*
X16002000Y11446000D03*
X46990000Y10430000D03*
X1270000Y2810000D03*
X22174200Y9880600D03*
X13970000Y18050000D03*
X32766000Y9922000D03*
X11430000Y15510000D03*
X19050000Y18050000D03*
X1270000Y10430000D03*
X11430000Y18050000D03*
X28702000Y12589000D03*
X41910000Y2810000D03*
X34036000Y11700000D03*
X21336000Y4080000D03*
X30861000Y5985000D03*
X14224000Y5223000D03*
X13716000Y7763000D03*
X25781000Y13478000D03*
X14224000Y4080000D03*
X3810000Y18050000D03*
X19050000Y4080000D03*
X3810000Y13097000D03*
X6350000Y18050000D03*
X27279600Y9160000D03*
X8890000Y18050000D03*
X16510000Y11954000D03*
X15240000Y7763000D03*
X3810000Y10430000D03*
X3810000Y5350000D03*
X1270000Y18050000D03*
X46990000Y2810000D03*
X32766000Y8652000D03*
X1270000Y5350000D03*
X16510000Y15510000D03*
X26619200Y9160000D03*
X16510000Y10938000D03*
X34163000Y7128000D03*
X39370000Y5350000D03*
%TO.N,USB-VIN*%
X9017000Y10938000D03*
X9017000Y5350000D03*
X8382000Y5350000D03*
X8382000Y10938000D03*
X8636000Y11496800D03*
X8382000Y5985000D03*
%TO.N,/VIN_DET*%
X22479000Y13351000D03*
X12319000Y7509000D03*
%TO.N,/C-USBDP*%
X11176000Y5985000D03*
X21717000Y13261600D03*
%TO.N,/C-USBDM*%
X19431000Y13478000D03*
X10668000Y9541000D03*
%TO.N,Net-(U3-VDCIA)*%
X22913000Y10811000D03*
X28069607Y11951839D03*
%TO.N,Net-(J2-CC1)*%
X8128000Y9922000D03*
X11684000Y12447000D03*
%TO.N,/CFG1*%
X20090200Y12056801D03*
X12192000Y10049000D03*
%TO.N,/CFG3*%
X19521099Y11487699D03*
X21052649Y11475351D03*
%TO.N,Net-(J2-CC2)*%
X12319000Y13351000D03*
X8255000Y7001000D03*
%TD*%
D15*
%TO.N,/VIN_DET*%
X13817600Y9007600D02*
X12319000Y7509000D01*
X20294599Y9007600D02*
X13817600Y9007600D01*
X22479000Y11192000D02*
X20294599Y9007600D01*
X22479000Y13351000D02*
X22479000Y11192000D01*
%TO.N,/C-USBDP*%
X13375497Y9337800D02*
X20157826Y9337800D01*
X11176000Y5985000D02*
X11176000Y7138303D01*
X11176000Y7138303D02*
X13375497Y9337800D01*
X21717000Y10896974D02*
X21717000Y13261600D01*
X20157826Y9337800D02*
X21717000Y10896974D01*
%TO.N,/C-USBDM*%
X19431000Y13478000D02*
X14224000Y13478000D01*
X14224000Y13478000D02*
X10668000Y9922000D01*
X10668000Y9922000D02*
X10668000Y9541000D01*
D16*
%TO.N,Net-(U3-VDCIA)*%
X24053839Y11951839D02*
X28069607Y11951839D01*
X22913000Y10811000D02*
X24053839Y11951839D01*
D15*
%TO.N,Net-(J2-CC1)*%
X11674226Y11903200D02*
X11684000Y11903200D01*
X9693026Y9922000D02*
X11674226Y11903200D01*
X8128000Y9922000D02*
X9693026Y9922000D01*
X11684000Y11903200D02*
X11684000Y12447000D01*
%TO.N,/CFG1*%
X16929096Y9668000D02*
X19317897Y12056801D01*
X19317897Y12056801D02*
X20090200Y12056801D01*
X12192000Y10049000D02*
X12573000Y9668000D01*
X12573000Y9668000D02*
X16929096Y9668000D01*
%TO.N,/CFG3*%
X21052649Y11475351D02*
X21040301Y11487699D01*
X21040301Y11487699D02*
X19521099Y11487699D01*
%TO.N,Net-(J2-CC2)*%
X12319000Y12070697D02*
X12319000Y13351000D01*
X8255000Y7001000D02*
X8255000Y8017000D01*
X11811000Y11573000D02*
X11821303Y11573000D01*
X11821303Y11573000D02*
X12319000Y12070697D01*
X8255000Y8017000D02*
X11811000Y11573000D01*
%TD*%
%TA.AperFunction,Conductor*%
%TO.N,GND*%
G36*
X20257000Y19728619D02*
G01*
X20303119Y19682500D01*
X20320000Y19619500D01*
X20320000Y13859000D01*
X21214917Y13859000D01*
X21281454Y13839999D01*
X21327923Y13788728D01*
X21340310Y13720650D01*
X21314879Y13656296D01*
X21228454Y13543665D01*
X21172095Y13407605D01*
X21152874Y13261600D01*
X21172096Y13115591D01*
X21188352Y13076345D01*
X21195925Y13050591D01*
X21197874Y13039832D01*
X21273684Y12845897D01*
X21362627Y12618364D01*
X21364953Y12612415D01*
X21373600Y12566542D01*
X21373600Y12136363D01*
X21358722Y12076966D01*
X21317601Y12031597D01*
X21259948Y12010969D01*
X21199380Y12019954D01*
X21198656Y12020255D01*
X21052649Y12039477D01*
X20906642Y12020255D01*
X20872018Y12005913D01*
X20844051Y11997961D01*
X20835938Y11996640D01*
X20825310Y11992732D01*
X20818110Y11990084D01*
X20762587Y11982920D01*
X20709439Y12000517D01*
X20669161Y12039402D01*
X20649705Y12091898D01*
X20648922Y12097844D01*
X20635104Y12202808D01*
X20578747Y12338864D01*
X20489097Y12455698D01*
X20372263Y12545348D01*
X20236207Y12601705D01*
X20090200Y12620927D01*
X19944193Y12601705D01*
X19904942Y12585446D01*
X19879182Y12577874D01*
X19868432Y12575927D01*
X19538613Y12447000D01*
X19441013Y12408848D01*
X19395140Y12400201D01*
X19338389Y12400201D01*
X19327408Y12400680D01*
X19324684Y12400918D01*
X19287506Y12404171D01*
X19248800Y12393799D01*
X19238088Y12391424D01*
X19198636Y12384469D01*
X19198634Y12384468D01*
X19197896Y12384338D01*
X19171144Y12373257D01*
X19137714Y12349849D01*
X19128443Y12343943D01*
X19093759Y12323918D01*
X19068010Y12293232D01*
X19060584Y12285129D01*
X16823760Y10048305D01*
X16782883Y10020991D01*
X16734665Y10011400D01*
X12902937Y10011400D01*
X12854790Y10020962D01*
X12813951Y10048195D01*
X12786617Y10088968D01*
X12771568Y10125112D01*
X12717645Y10254620D01*
X12710378Y10265461D01*
X12698635Y10287394D01*
X12680547Y10331063D01*
X12653067Y10366875D01*
X12590897Y10447897D01*
X12474063Y10537547D01*
X12338007Y10593904D01*
X12192000Y10613126D01*
X12160128Y10608930D01*
X12098529Y10616221D01*
X12047872Y10652022D01*
X12020436Y10707655D01*
X12022872Y10769638D01*
X12054588Y10822947D01*
X14329336Y13097695D01*
X14370213Y13125009D01*
X14418431Y13134600D01*
X18735942Y13134600D01*
X18781814Y13125953D01*
X18854104Y13097695D01*
X19209232Y12958874D01*
X19219991Y12956925D01*
X19245745Y12949352D01*
X19284991Y12933096D01*
X19431000Y12913874D01*
X19577005Y12933095D01*
X19713065Y12989454D01*
X19829897Y13079102D01*
X19919545Y13195934D01*
X19919547Y13195937D01*
X19975904Y13331993D01*
X19995126Y13478000D01*
X19975904Y13624007D01*
X19919547Y13760063D01*
X19829897Y13876897D01*
X19713063Y13966547D01*
X19577007Y14022904D01*
X19431000Y14042126D01*
X19284993Y14022904D01*
X19245742Y14006645D01*
X19219982Y13999073D01*
X19209232Y13997126D01*
X18781813Y13830047D01*
X18735940Y13821400D01*
X14244469Y13821400D01*
X14233487Y13821879D01*
X14215739Y13823432D01*
X14193610Y13825369D01*
X14193609Y13825368D01*
X14193609Y13825369D01*
X14154914Y13815000D01*
X14144202Y13812625D01*
X14104739Y13805668D01*
X14104737Y13805667D01*
X14103999Y13805537D01*
X14077250Y13794458D01*
X14043819Y13771049D01*
X14034548Y13765143D01*
X13999862Y13745117D01*
X13974113Y13714431D01*
X13966687Y13706328D01*
X12909770Y12649411D01*
X12850580Y12616106D01*
X12782702Y12618364D01*
X12725856Y12655528D01*
X12696559Y12716801D01*
X12703322Y12784379D01*
X12838126Y13129232D01*
X12840073Y13139982D01*
X12847645Y13165742D01*
X12863904Y13204993D01*
X12883126Y13351000D01*
X12863904Y13497007D01*
X12807547Y13633063D01*
X12717897Y13749897D01*
X12601063Y13839547D01*
X12465007Y13895904D01*
X12319000Y13915126D01*
X12172993Y13895904D01*
X12036937Y13839547D01*
X12036934Y13839545D01*
X11920102Y13749897D01*
X11830454Y13633065D01*
X11774095Y13497005D01*
X11754874Y13351000D01*
X11774096Y13204989D01*
X11782748Y13184101D01*
X11792068Y13127643D01*
X11775456Y13072885D01*
X11736338Y13031121D01*
X11682786Y13010966D01*
X11537993Y12991904D01*
X11401937Y12935547D01*
X11401934Y12935545D01*
X11285102Y12845897D01*
X11195454Y12729065D01*
X11139095Y12593005D01*
X11119874Y12447000D01*
X11139096Y12300991D01*
X11155742Y12260802D01*
X11163241Y12235449D01*
X11165307Y12224250D01*
X11232456Y12054415D01*
X11241275Y12006727D01*
X11231429Y11959242D01*
X11204377Y11918992D01*
X9840926Y10555541D01*
X9786032Y10523367D01*
X9722417Y10522117D01*
X9666302Y10552111D01*
X9631998Y10605700D01*
X9628252Y10669218D01*
X9633983Y10698030D01*
X9650093Y10779017D01*
X9653830Y10804210D01*
X9654299Y10808981D01*
X9656252Y10828798D01*
X9657500Y10854217D01*
X9657500Y11275783D01*
X9656252Y11301201D01*
X9653830Y11325788D01*
X9653830Y11325790D01*
X9650093Y11350983D01*
X9628401Y11460033D01*
X9613633Y11508714D01*
X9594819Y11554134D01*
X9570839Y11598996D01*
X9509066Y11691446D01*
X9493892Y11711906D01*
X9478222Y11730999D01*
X9461124Y11749863D01*
X9320863Y11890124D01*
X9301999Y11907222D01*
X9282906Y11922892D01*
X9262446Y11938066D01*
X9169996Y11999839D01*
X9125134Y12023819D01*
X9079714Y12042633D01*
X9031033Y12057401D01*
X8921983Y12079093D01*
X8896790Y12082830D01*
X8887246Y12083769D01*
X8872201Y12085252D01*
X8846783Y12086500D01*
X8846774Y12086500D01*
X7409226Y12086500D01*
X7409217Y12086500D01*
X7383798Y12085252D01*
X7363981Y12083299D01*
X7359210Y12082830D01*
X7334017Y12079093D01*
X7224966Y12057401D01*
X7176285Y12042633D01*
X7130865Y12023819D01*
X7109982Y12012656D01*
X7086002Y11999839D01*
X7052552Y11977488D01*
X6993553Y11938066D01*
X6975959Y11925018D01*
X6973082Y11922884D01*
X6954001Y11907223D01*
X6935130Y11890119D01*
X6273175Y11228164D01*
X6219866Y11196448D01*
X6157883Y11194012D01*
X6102249Y11221448D01*
X6066449Y11272105D01*
X6059158Y11333705D01*
X6061433Y11350983D01*
X6069466Y11412000D01*
X6049687Y11562236D01*
X5991698Y11702233D01*
X5899451Y11822451D01*
X5779233Y11914698D01*
X5639236Y11972687D01*
X5526720Y11987500D01*
X5451280Y11987500D01*
X5338764Y11972687D01*
X5198767Y11914698D01*
X5078549Y11822451D01*
X5022854Y11749868D01*
X4986301Y11702232D01*
X4928312Y11562235D01*
X4908534Y11412000D01*
X4928312Y11261764D01*
X4986301Y11121767D01*
X5078549Y11001549D01*
X5198767Y10909301D01*
X5338764Y10851312D01*
X5451280Y10836500D01*
X5526720Y10836500D01*
X5639237Y10851312D01*
X5705183Y10878628D01*
X5774941Y10886364D01*
X5838016Y10855579D01*
X5874836Y10795825D01*
X5873975Y10725645D01*
X5868518Y10707655D01*
X5865598Y10698029D01*
X5843906Y10588977D01*
X5840170Y10563785D01*
X5837750Y10539213D01*
X5836500Y10513774D01*
X5836500Y6409226D01*
X5837750Y6383784D01*
X5840169Y6359222D01*
X5843907Y6334019D01*
X5846934Y6318798D01*
X5841985Y6251770D01*
X5803282Y6196822D01*
X5741837Y6169588D01*
X5675136Y6177816D01*
X5639236Y6192687D01*
X5526720Y6207500D01*
X5451280Y6207500D01*
X5338764Y6192687D01*
X5198767Y6134698D01*
X5078549Y6042451D01*
X5007764Y5950202D01*
X4986301Y5922232D01*
X4928312Y5782235D01*
X4908534Y5632000D01*
X4928312Y5481764D01*
X4986301Y5341767D01*
X5078549Y5221549D01*
X5198767Y5129301D01*
X5338764Y5071312D01*
X5451280Y5056500D01*
X5526720Y5056500D01*
X5639235Y5071312D01*
X5779232Y5129301D01*
X5869027Y5198204D01*
X5899451Y5221549D01*
X5991698Y5341767D01*
X6049687Y5481764D01*
X6067125Y5614219D01*
X6094648Y5677706D01*
X6151545Y5717086D01*
X6220658Y5720482D01*
X6281142Y5686869D01*
X7062149Y4905862D01*
X7081011Y4888765D01*
X7100087Y4873111D01*
X7120549Y4857935D01*
X7213002Y4796159D01*
X7257866Y4772178D01*
X7303282Y4753365D01*
X7351969Y4738597D01*
X7461011Y4716908D01*
X7486222Y4713169D01*
X7510784Y4710750D01*
X7536226Y4709500D01*
X9168787Y4709500D01*
X9194227Y4710750D01*
X9218792Y4713169D01*
X9243997Y4716908D01*
X9290203Y4726098D01*
X9331411Y4738598D01*
X9338885Y4740865D01*
X9372054Y4754603D01*
X9384308Y4759679D01*
X9429174Y4783660D01*
X9457824Y4802803D01*
X9497158Y4835084D01*
X9531914Y4869840D01*
X9534599Y4873111D01*
X9564194Y4909173D01*
X9583342Y4937831D01*
X9607319Y4982691D01*
X9607320Y4982693D01*
X9626130Y5028103D01*
X9639238Y5071312D01*
X9640900Y5076789D01*
X9650093Y5123004D01*
X9653830Y5148197D01*
X9656251Y5172779D01*
X9656252Y5172785D01*
X9657500Y5198204D01*
X9657500Y5560783D01*
X9656252Y5586201D01*
X9653830Y5610788D01*
X9653321Y5614219D01*
X9650093Y5635983D01*
X9628401Y5745033D01*
X9613633Y5793714D01*
X9594819Y5839134D01*
X9570839Y5883996D01*
X9509066Y5976446D01*
X9493892Y5996906D01*
X9478222Y6015999D01*
X9461124Y6034863D01*
X9066863Y6429124D01*
X9047999Y6446222D01*
X9028906Y6461892D01*
X9008446Y6477066D01*
X8915996Y6538839D01*
X8871134Y6562819D01*
X8825714Y6581633D01*
X8825702Y6581636D01*
X8823444Y6582572D01*
X8771700Y6622277D01*
X8746741Y6682535D01*
X8755254Y6747199D01*
X8799904Y6854993D01*
X8800469Y6859285D01*
X8819126Y7001000D01*
X8799904Y7147007D01*
X8783647Y7186252D01*
X8776073Y7212017D01*
X8774126Y7222767D01*
X8607046Y7650187D01*
X8598400Y7696060D01*
X8598400Y7822569D01*
X8607991Y7870787D01*
X8635305Y7911664D01*
X9992380Y9268739D01*
X10054203Y9302657D01*
X10124568Y9298046D01*
X10181436Y9256349D01*
X10269101Y9142103D01*
X10385934Y9052454D01*
X10521994Y8996095D01*
X10668000Y8976874D01*
X10814005Y8996095D01*
X10950065Y9052454D01*
X11066897Y9142102D01*
X11156545Y9258934D01*
X11156547Y9258937D01*
X11212904Y9394993D01*
X11232126Y9541000D01*
X11227707Y9574554D01*
X11226658Y9588326D01*
X11226465Y9597432D01*
X11218537Y9644803D01*
X11217886Y9649159D01*
X11213668Y9681200D01*
X11212904Y9687007D01*
X11212903Y9687008D01*
X11212095Y9693148D01*
X11208134Y9706958D01*
X11180204Y9873849D01*
X11184474Y9933057D01*
X11215381Y9983740D01*
X11418052Y10186411D01*
X11471361Y10218127D01*
X11533343Y10220563D01*
X11588976Y10193128D01*
X11624777Y10142472D01*
X11632069Y10080872D01*
X11627873Y10049001D01*
X11647095Y9902994D01*
X11703454Y9766934D01*
X11793102Y9650102D01*
X11909936Y9560452D01*
X11954138Y9542142D01*
X11961467Y9538828D01*
X12005658Y9517120D01*
X12326290Y9410906D01*
X12349670Y9400416D01*
X12357186Y9396076D01*
X12383548Y9380856D01*
X12392812Y9374954D01*
X12426245Y9351545D01*
X12453003Y9340461D01*
X12493203Y9333372D01*
X12503929Y9330994D01*
X12542607Y9320630D01*
X12559471Y9322106D01*
X12619684Y9312568D01*
X12668372Y9275879D01*
X12694136Y9220626D01*
X12690945Y9159746D01*
X12659546Y9107490D01*
X10947669Y7395613D01*
X10939565Y7388187D01*
X10908884Y7362443D01*
X10888859Y7327758D01*
X10882953Y7318488D01*
X10859543Y7285056D01*
X10848463Y7258305D01*
X10841376Y7218115D01*
X10838997Y7207386D01*
X10828630Y7168695D01*
X10832121Y7128792D01*
X10832600Y7117811D01*
X10832600Y6680058D01*
X10823953Y6634185D01*
X10762535Y6477068D01*
X10656872Y6206762D01*
X10654924Y6196008D01*
X10647352Y6170255D01*
X10631096Y6131008D01*
X10611874Y5985000D01*
X10631095Y5838994D01*
X10687454Y5702934D01*
X10777102Y5586102D01*
X10893934Y5496454D01*
X11029994Y5440095D01*
X11176000Y5420874D01*
X11322005Y5440095D01*
X11458065Y5496454D01*
X11574897Y5586102D01*
X11664545Y5702934D01*
X11664547Y5702937D01*
X11720904Y5838993D01*
X11740126Y5985000D01*
X11723406Y6112000D01*
X35581967Y6112000D01*
X35600854Y5908180D01*
X35656872Y5711297D01*
X35748110Y5528066D01*
X35871467Y5364716D01*
X36022739Y5226813D01*
X36196771Y5119056D01*
X36358248Y5056500D01*
X36387644Y5045112D01*
X36588853Y5007500D01*
X36793545Y5007500D01*
X36793547Y5007500D01*
X36994756Y5045112D01*
X37090191Y5082083D01*
X37185628Y5119056D01*
X37313470Y5198213D01*
X37359662Y5226814D01*
X37510932Y5364715D01*
X37634288Y5528065D01*
X37634289Y5528066D01*
X37725527Y5711297D01*
X37727175Y5717086D01*
X37781545Y5908179D01*
X37800432Y6112000D01*
X37781545Y6315821D01*
X37725528Y6512701D01*
X37634288Y6695935D01*
X37510932Y6859285D01*
X37359662Y6997186D01*
X37185627Y7104944D01*
X36994756Y7178888D01*
X36793547Y7216500D01*
X36588853Y7216500D01*
X36387644Y7178888D01*
X36196773Y7104944D01*
X36022738Y6997186D01*
X35871468Y6859285D01*
X35868227Y6854993D01*
X35748110Y6695933D01*
X35656872Y6512702D01*
X35600854Y6315819D01*
X35581967Y6112000D01*
X11723406Y6112000D01*
X11720904Y6131007D01*
X11704647Y6170255D01*
X11697073Y6196017D01*
X11696927Y6196822D01*
X11695126Y6206767D01*
X11528046Y6634187D01*
X11519400Y6680060D01*
X11519400Y6943872D01*
X11528991Y6992090D01*
X11556305Y7032967D01*
X11694048Y7170710D01*
X11755871Y7204628D01*
X11826237Y7200016D01*
X11883105Y7158319D01*
X11920102Y7110102D01*
X12036934Y7020454D01*
X12172994Y6964095D01*
X12319000Y6944874D01*
X12465005Y6964095D01*
X12601065Y7020454D01*
X12717897Y7110102D01*
X12807546Y7226935D01*
X12823804Y7266184D01*
X12836665Y7289755D01*
X12842890Y7298734D01*
X13006483Y7672308D01*
X13026977Y7719108D01*
X13053300Y7757659D01*
X13922936Y8627295D01*
X13959908Y8652000D01*
X35581967Y8652000D01*
X35600854Y8448180D01*
X35656872Y8251297D01*
X35748110Y8068066D01*
X35871467Y7904716D01*
X36022739Y7766813D01*
X36196771Y7659056D01*
X36387643Y7585112D01*
X36387644Y7585112D01*
X36588853Y7547500D01*
X36793545Y7547500D01*
X36793547Y7547500D01*
X36994756Y7585112D01*
X37162734Y7650187D01*
X37185628Y7659056D01*
X37359660Y7766813D01*
X37359662Y7766814D01*
X37510932Y7904715D01*
X37634288Y8068065D01*
X37634289Y8068066D01*
X37725527Y8251297D01*
X37730967Y8270414D01*
X37781545Y8448179D01*
X37800432Y8652000D01*
X37781545Y8855821D01*
X37725528Y9052701D01*
X37634288Y9235935D01*
X37510932Y9399285D01*
X37359662Y9537186D01*
X37185627Y9644944D01*
X36994756Y9718888D01*
X36793547Y9756500D01*
X36588853Y9756500D01*
X36387644Y9718888D01*
X36196773Y9644944D01*
X36022738Y9537186D01*
X35871468Y9399285D01*
X35832742Y9348003D01*
X35748110Y9235933D01*
X35656872Y9052702D01*
X35600854Y8855819D01*
X35581967Y8652000D01*
X13959908Y8652000D01*
X13963813Y8654609D01*
X14012031Y8664200D01*
X20274107Y8664200D01*
X20285088Y8663721D01*
X20303272Y8662130D01*
X20324990Y8660230D01*
X20324991Y8660230D01*
X20363682Y8670597D01*
X20374411Y8672976D01*
X20413860Y8679932D01*
X20414601Y8680063D01*
X20441352Y8691144D01*
X20474783Y8714552D01*
X20484054Y8720458D01*
X20518735Y8740481D01*
X20518737Y8740483D01*
X20544490Y8771175D01*
X20551905Y8779265D01*
X22269510Y10496869D01*
X22331333Y10530787D01*
X22401699Y10526175D01*
X22458567Y10484478D01*
X22514102Y10412102D01*
X22630934Y10322454D01*
X22766994Y10266095D01*
X22913000Y10246874D01*
X23059005Y10266095D01*
X23157305Y10306813D01*
X23195063Y10322453D01*
X23195065Y10322454D01*
X23311896Y10412102D01*
X23401546Y10528935D01*
X23402403Y10531003D01*
X23411634Y10553291D01*
X23428999Y10582958D01*
X23429533Y10583637D01*
X23429535Y10583640D01*
X23644250Y10994564D01*
X23666828Y11025305D01*
X23833523Y11192000D01*
X35581967Y11192000D01*
X35600854Y10988180D01*
X35656872Y10791297D01*
X35748110Y10608066D01*
X35871467Y10444716D01*
X36022739Y10306813D01*
X36196771Y10199056D01*
X36387644Y10125112D01*
X36588853Y10087500D01*
X36793545Y10087500D01*
X36793547Y10087500D01*
X36994756Y10125112D01*
X37152987Y10186411D01*
X37185628Y10199056D01*
X37359660Y10306813D01*
X37359662Y10306814D01*
X37510932Y10444715D01*
X37615843Y10583640D01*
X37634289Y10608066D01*
X37725527Y10791297D01*
X37726816Y10795825D01*
X37781545Y10988179D01*
X37800432Y11192000D01*
X37781545Y11395821D01*
X37725528Y11592701D01*
X37634288Y11775935D01*
X37510932Y11939285D01*
X37359662Y12077186D01*
X37185627Y12184944D01*
X36994756Y12258888D01*
X36793547Y12296500D01*
X36588853Y12296500D01*
X36387644Y12258888D01*
X36196773Y12184944D01*
X36022738Y12077186D01*
X35871468Y11939285D01*
X35834340Y11890119D01*
X35748110Y11775933D01*
X35656872Y11592702D01*
X35600854Y11395819D01*
X35581967Y11192000D01*
X23833523Y11192000D01*
X24174957Y11533434D01*
X24215834Y11560748D01*
X24264052Y11570339D01*
X27385033Y11570339D01*
X27422738Y11564565D01*
X27865127Y11425824D01*
X27865997Y11425721D01*
X27899246Y11417022D01*
X27923598Y11406935D01*
X28069607Y11387713D01*
X28215612Y11406934D01*
X28351672Y11463293D01*
X28468504Y11552941D01*
X28558152Y11669773D01*
X28558154Y11669776D01*
X28614511Y11805832D01*
X28633733Y11951839D01*
X28614511Y12097846D01*
X28558154Y12233902D01*
X28468504Y12350736D01*
X28351670Y12440386D01*
X28215614Y12496743D01*
X28069607Y12515965D01*
X27923600Y12496743D01*
X27899245Y12486654D01*
X27865986Y12477954D01*
X27865128Y12477852D01*
X27865122Y12477850D01*
X27865121Y12477850D01*
X27422739Y12339113D01*
X27385034Y12333339D01*
X24106472Y12333339D01*
X24080614Y12336021D01*
X24069822Y12338284D01*
X24069821Y12338283D01*
X24069821Y12338284D01*
X24037917Y12334307D01*
X24022331Y12333339D01*
X24022228Y12333339D01*
X24001362Y12329856D01*
X23996258Y12329113D01*
X23943479Y12322535D01*
X23943478Y12322534D01*
X23935522Y12321543D01*
X23935308Y12321474D01*
X23928255Y12317657D01*
X23928253Y12317657D01*
X23881487Y12292348D01*
X23876870Y12289972D01*
X23821891Y12263094D01*
X23821701Y12262953D01*
X23780258Y12217933D01*
X23776652Y12214174D01*
X23127303Y11564826D01*
X23096559Y11542248D01*
X23006751Y11495322D01*
X22944422Y11481059D01*
X22883117Y11499227D01*
X22838624Y11545148D01*
X22822400Y11606996D01*
X22822400Y12655940D01*
X22831047Y12701813D01*
X22863322Y12784379D01*
X22998126Y13129232D01*
X23000073Y13139982D01*
X23007645Y13165742D01*
X23023904Y13204993D01*
X23043126Y13351000D01*
X23023904Y13497007D01*
X22967547Y13633063D01*
X22949719Y13656296D01*
X22924289Y13720649D01*
X22936676Y13788728D01*
X22983145Y13839999D01*
X23049682Y13859000D01*
X29084000Y13859000D01*
X29147000Y13842119D01*
X29193119Y13796000D01*
X29210000Y13733000D01*
X29210000Y13351000D01*
X49619500Y13351000D01*
X49682500Y13334119D01*
X49728619Y13288000D01*
X49745500Y13225000D01*
X49745500Y380500D01*
X49728619Y317500D01*
X49682500Y271381D01*
X49619500Y254500D01*
X380500Y254500D01*
X317500Y271381D01*
X271381Y317500D01*
X254500Y380500D01*
X254500Y19619500D01*
X271381Y19682500D01*
X317500Y19728619D01*
X380500Y19745500D01*
X20194000Y19745500D01*
X20257000Y19728619D01*
G37*
%TD.AperFunction*%
%TA.AperFunction,Conductor*%
G36*
X19028334Y11178716D02*
G01*
X19085202Y11137020D01*
X19122202Y11088801D01*
X19239033Y10999153D01*
X19375093Y10942794D01*
X19521098Y10923573D01*
X19521099Y10923573D01*
X19543234Y10926487D01*
X19667104Y10942794D01*
X19684274Y10949906D01*
X19706355Y10959052D01*
X19732107Y10966624D01*
X19742865Y10968573D01*
X19887996Y11025305D01*
X20170284Y11135652D01*
X20216157Y11144299D01*
X20356212Y11144299D01*
X20404809Y11134550D01*
X20825124Y10958842D01*
X20854949Y10950748D01*
X20870162Y10945557D01*
X20906643Y10930446D01*
X20969845Y10922126D01*
X21033333Y10894603D01*
X21072712Y10837705D01*
X21076107Y10768592D01*
X21042494Y10708109D01*
X20052490Y9718105D01*
X20011613Y9690791D01*
X19963395Y9681200D01*
X17732127Y9681200D01*
X17674924Y9694933D01*
X17630191Y9733139D01*
X17607678Y9787489D01*
X17612294Y9846136D01*
X17643032Y9896295D01*
X18896146Y11149409D01*
X18957969Y11183327D01*
X19028334Y11178716D01*
G37*
%TD.AperFunction*%
%TD*%
%TA.AperFunction,Conductor*%
%TO.N,Net-(J2-CC2)*%
G36*
X8342508Y7608563D02*
G01*
X8346808Y7603160D01*
X8532435Y7128290D01*
X8532309Y7119461D01*
X8526048Y7113234D01*
X8259510Y7001884D01*
X8255000Y7000980D01*
X8250490Y7001884D01*
X7983949Y7113235D01*
X7977690Y7119461D01*
X7977564Y7128290D01*
X8163192Y7603160D01*
X8167492Y7608563D01*
X8174089Y7610600D01*
X8335911Y7610600D01*
X8342508Y7608563D01*
G37*
%TD.AperFunction*%
%TD*%
%TA.AperFunction,Conductor*%
%TO.N,/VIN_DET*%
G36*
X22483510Y13350115D02*
G01*
X22750048Y13238765D01*
X22756309Y13232538D01*
X22756435Y13223709D01*
X22570808Y12748840D01*
X22566508Y12743437D01*
X22559911Y12741400D01*
X22398089Y12741400D01*
X22391492Y12743437D01*
X22387192Y12748840D01*
X22331156Y12892189D01*
X22201564Y13223710D01*
X22201690Y13232538D01*
X22207951Y13238765D01*
X22474490Y13350115D01*
X22479000Y13351019D01*
X22483510Y13350115D01*
G37*
%TD.AperFunction*%
%TD*%
%TA.AperFunction,Conductor*%
%TO.N,/C-USBDM*%
G36*
X19312538Y13755309D02*
G01*
X19318765Y13749048D01*
X19430116Y13482510D01*
X19431020Y13478000D01*
X19430116Y13473490D01*
X19318765Y13206951D01*
X19312538Y13200690D01*
X19303710Y13200564D01*
X18972189Y13330156D01*
X18828840Y13386192D01*
X18823437Y13390492D01*
X18821400Y13397089D01*
X18821400Y13558911D01*
X18823437Y13565508D01*
X18828840Y13569808D01*
X19303709Y13755435D01*
X19312538Y13755309D01*
G37*
%TD.AperFunction*%
%TD*%
%TA.AperFunction,Conductor*%
%TO.N,/CFG3*%
G36*
X20934207Y11752825D02*
G01*
X20940325Y11746611D01*
X21051764Y11479861D01*
X21052668Y11475351D01*
X21051764Y11470841D01*
X20940518Y11204551D01*
X20936816Y11199757D01*
X20931212Y11197456D01*
X20925212Y11198265D01*
X20596603Y11335634D01*
X20452692Y11395795D01*
X20447466Y11400106D01*
X20445505Y11406590D01*
X20445505Y11568435D01*
X20447610Y11575130D01*
X20453167Y11579416D01*
X20925491Y11753082D01*
X20934207Y11752825D01*
G37*
%TD.AperFunction*%
%TD*%
%TA.AperFunction,Conductor*%
%TO.N,/CFG3*%
G36*
X19780160Y11713624D02*
G01*
X19784741Y11710390D01*
X19787387Y11707337D01*
X19898109Y11636180D01*
X20024393Y11599101D01*
X20070929Y11599101D01*
X20075189Y11598298D01*
X20123259Y11579507D01*
X20128662Y11575207D01*
X20130699Y11568610D01*
X20130699Y11406788D01*
X20128662Y11400191D01*
X20123259Y11395891D01*
X19890329Y11304838D01*
X19648388Y11210263D01*
X19639560Y11210389D01*
X19633334Y11216648D01*
X19521982Y11483189D01*
X19521079Y11487699D01*
X19521983Y11492209D01*
X19611856Y11707337D01*
X19633333Y11758747D01*
X19639560Y11765008D01*
X19648389Y11765134D01*
X19780160Y11713624D01*
G37*
%TD.AperFunction*%
%TD*%
%TA.AperFunction,Conductor*%
%TO.N,Net-(U3-VDCIA)*%
G36*
X27951219Y12229687D02*
G01*
X27957078Y12223589D01*
X28068723Y11956349D01*
X28069627Y11951839D01*
X28068723Y11947329D01*
X27957078Y11680088D01*
X27951219Y11673990D01*
X27942783Y11673434D01*
X27597517Y11781713D01*
X27468206Y11822268D01*
X27462277Y11826506D01*
X27460007Y11833432D01*
X27460007Y12070246D01*
X27462277Y12077172D01*
X27468206Y12081410D01*
X27942781Y12230243D01*
X27951219Y12229687D01*
G37*
%TD.AperFunction*%
%TD*%
%TA.AperFunction,Conductor*%
%TO.N,/CFG1*%
G36*
X12471754Y10161187D02*
G01*
X12478081Y10154873D01*
X12642886Y9759059D01*
X12643785Y9754562D01*
X12643785Y9595301D01*
X12641537Y9588406D01*
X12635658Y9584160D01*
X12628406Y9584195D01*
X12458943Y9640332D01*
X12087264Y9763457D01*
X12082028Y9766988D01*
X12079390Y9772730D01*
X12080122Y9779004D01*
X12189148Y10044490D01*
X12191690Y10048311D01*
X12195507Y10050860D01*
X12462816Y10161191D01*
X12471754Y10161187D01*
G37*
%TD.AperFunction*%
%TD*%
%TA.AperFunction,Conductor*%
%TO.N,Net-(J2-CC1)*%
G36*
X8730160Y10013808D02*
G01*
X8735563Y10009508D01*
X8737600Y10002911D01*
X8737600Y9841089D01*
X8735563Y9834492D01*
X8730160Y9830192D01*
X8497230Y9739139D01*
X8255289Y9644564D01*
X8246461Y9644690D01*
X8240235Y9650949D01*
X8128883Y9917490D01*
X8127980Y9922000D01*
X8128884Y9926510D01*
X8165354Y10013808D01*
X8240234Y10193048D01*
X8246461Y10199309D01*
X8255290Y10199435D01*
X8730160Y10013808D01*
G37*
%TD.AperFunction*%
%TD*%
%TA.AperFunction,Conductor*%
%TO.N,/C-USBDM*%
G36*
X10775991Y10137296D02*
G01*
X10889857Y10023430D01*
X10893124Y10017088D01*
X10970524Y9554599D01*
X10969704Y9547980D01*
X10965400Y9542884D01*
X10959011Y9540968D01*
X10672175Y9540304D01*
X10667667Y9541197D01*
X10663851Y9543756D01*
X10459855Y9749095D01*
X10456473Y9756732D01*
X10459047Y9764681D01*
X10662476Y10017088D01*
X10758609Y10136366D01*
X10763892Y10140080D01*
X10770341Y10140425D01*
X10775991Y10137296D01*
G37*
%TD.AperFunction*%
%TD*%
%TA.AperFunction,Conductor*%
%TO.N,/VIN_DET*%
G36*
X12692838Y7997264D02*
G01*
X12807264Y7882838D01*
X12810489Y7876732D01*
X12809708Y7869872D01*
X12605184Y7402831D01*
X12598852Y7396677D01*
X12590022Y7396700D01*
X12322812Y7506436D01*
X12318986Y7508986D01*
X12316436Y7512814D01*
X12206701Y7780022D01*
X12206677Y7788852D01*
X12212831Y7795184D01*
X12679872Y7999708D01*
X12686732Y8000489D01*
X12692838Y7997264D01*
G37*
%TD.AperFunction*%
%TD*%
%TA.AperFunction,Conductor*%
%TO.N,Net-(U3-VDCIA)*%
G36*
X23260324Y11325778D02*
G01*
X23427778Y11158324D01*
X23431070Y11151822D01*
X23429875Y11144634D01*
X23397527Y11082725D01*
X23199540Y10703817D01*
X23193180Y10698244D01*
X23184726Y10698411D01*
X22916812Y10808436D01*
X22912986Y10810986D01*
X22910436Y10814814D01*
X22800411Y11082726D01*
X22800244Y11091180D01*
X22805817Y11097540D01*
X23026114Y11212649D01*
X23246634Y11327875D01*
X23253822Y11329070D01*
X23260324Y11325778D01*
G37*
%TD.AperFunction*%
%TD*%
%TA.AperFunction,Conductor*%
%TO.N,Net-(J2-CC2)*%
G36*
X12323510Y13350115D02*
G01*
X12590048Y13238765D01*
X12596309Y13232538D01*
X12596435Y13223709D01*
X12410808Y12748840D01*
X12406508Y12743437D01*
X12399911Y12741400D01*
X12238089Y12741400D01*
X12231492Y12743437D01*
X12227192Y12748840D01*
X12171156Y12892189D01*
X12041564Y13223710D01*
X12041690Y13232538D01*
X12047951Y13238765D01*
X12314490Y13350115D01*
X12319000Y13351019D01*
X12323510Y13350115D01*
G37*
%TD.AperFunction*%
%TD*%
%TA.AperFunction,Conductor*%
%TO.N,/C-USBDP*%
G36*
X11263508Y6592563D02*
G01*
X11267808Y6587160D01*
X11453435Y6112290D01*
X11453309Y6103461D01*
X11447048Y6097234D01*
X11180510Y5985884D01*
X11176000Y5984980D01*
X11171490Y5985884D01*
X10904949Y6097235D01*
X10898690Y6103461D01*
X10898564Y6112290D01*
X11084192Y6587160D01*
X11088492Y6592563D01*
X11095089Y6594600D01*
X11256911Y6594600D01*
X11263508Y6592563D01*
G37*
%TD.AperFunction*%
%TD*%
%TA.AperFunction,Conductor*%
%TO.N,/CFG1*%
G36*
X19971738Y12334110D02*
G01*
X19977965Y12327849D01*
X20089315Y12061311D01*
X20090219Y12056801D01*
X20089315Y12052291D01*
X19978998Y11788227D01*
X19974740Y11783034D01*
X19968329Y11781038D01*
X19961877Y11782894D01*
X19881084Y11834816D01*
X19879573Y11835973D01*
X19875806Y11839385D01*
X19871225Y11842619D01*
X19837648Y11860687D01*
X19705877Y11912197D01*
X19691087Y11914875D01*
X19689902Y11915155D01*
X19586906Y11945399D01*
X19540370Y11945399D01*
X19536110Y11946202D01*
X19488040Y11964993D01*
X19482637Y11969293D01*
X19480600Y11975890D01*
X19480600Y12137712D01*
X19482637Y12144309D01*
X19488040Y12148609D01*
X19962909Y12334236D01*
X19971738Y12334110D01*
G37*
%TD.AperFunction*%
%TD*%
%TA.AperFunction,Conductor*%
%TO.N,Net-(J2-CC1)*%
G36*
X11689205Y12445827D02*
G01*
X11953925Y12335234D01*
X11958900Y12331288D01*
X11961081Y12325325D01*
X11959827Y12319101D01*
X11787699Y11983310D01*
X11756163Y11921789D01*
X11697887Y11808104D01*
X11692770Y11803008D01*
X11685635Y11801887D01*
X11679204Y11805166D01*
X11566550Y11917820D01*
X11563945Y11921789D01*
X11406629Y12319667D01*
X11406733Y12328525D01*
X11413018Y12334771D01*
X11680204Y12445835D01*
X11684705Y12446731D01*
X11689205Y12445827D01*
G37*
%TD.AperFunction*%
%TD*%
%TA.AperFunction,Conductor*%
%TO.N,/C-USBDP*%
G36*
X21721510Y13260715D02*
G01*
X21988048Y13149365D01*
X21994309Y13143138D01*
X21994435Y13134309D01*
X21808808Y12659440D01*
X21804508Y12654037D01*
X21797911Y12652000D01*
X21636089Y12652000D01*
X21629492Y12654037D01*
X21625192Y12659440D01*
X21569156Y12802789D01*
X21439564Y13134310D01*
X21439690Y13143138D01*
X21445951Y13149365D01*
X21712490Y13260715D01*
X21717000Y13261619D01*
X21721510Y13260715D01*
G37*
%TD.AperFunction*%
%TD*%
%TA.AperFunction,Conductor*%
%TO.N,USB-VIN*%
G36*
X8871356Y11824579D02*
G01*
X8980406Y11802887D01*
X9025826Y11784073D01*
X9118276Y11722300D01*
X9137369Y11706630D01*
X9277630Y11566369D01*
X9293300Y11547276D01*
X9355073Y11454826D01*
X9373887Y11409406D01*
X9395579Y11300356D01*
X9398000Y11275774D01*
X9398000Y10854226D01*
X9395579Y10829644D01*
X9373887Y10720593D01*
X9355073Y10675173D01*
X9293300Y10582723D01*
X9277630Y10563630D01*
X9264369Y10550369D01*
X9245276Y10534699D01*
X9152826Y10472926D01*
X9107406Y10454112D01*
X9051902Y10443072D01*
X8998355Y10432421D01*
X8973774Y10430000D01*
X8401981Y10430000D01*
X8356107Y10438647D01*
X8349767Y10441126D01*
X8339010Y10443074D01*
X8313257Y10450645D01*
X8274007Y10466904D01*
X8128000Y10486126D01*
X7981993Y10466904D01*
X7845937Y10410547D01*
X7845934Y10410545D01*
X7729102Y10320897D01*
X7639454Y10204065D01*
X7583095Y10068004D01*
X7576012Y10014207D01*
X7570462Y9999462D01*
X7493000Y9922000D01*
X7493000Y6874000D01*
X7604588Y6762411D01*
X7604593Y6762405D01*
X7889405Y6477593D01*
X7889411Y6477588D01*
X8001000Y6366000D01*
X8592774Y6366000D01*
X8617356Y6363579D01*
X8726406Y6341887D01*
X8771826Y6323073D01*
X8864276Y6261300D01*
X8883369Y6245630D01*
X9277630Y5851369D01*
X9293300Y5832276D01*
X9355073Y5739826D01*
X9373887Y5694406D01*
X9395579Y5585356D01*
X9398000Y5560774D01*
X9398000Y5198213D01*
X9395579Y5173631D01*
X9386386Y5127416D01*
X9367573Y5081998D01*
X9348425Y5053340D01*
X9313660Y5018575D01*
X9303709Y5011926D01*
X9285001Y4999426D01*
X9239581Y4980613D01*
X9220358Y4976789D01*
X9193367Y4971421D01*
X9168787Y4969000D01*
X7536226Y4969000D01*
X7511645Y4971421D01*
X7478388Y4978036D01*
X7402591Y4993112D01*
X7357176Y5011924D01*
X7264718Y5073703D01*
X7245635Y5089364D01*
X6216364Y6118635D01*
X6200703Y6137718D01*
X6138924Y6230176D01*
X6120112Y6275591D01*
X6098421Y6384645D01*
X6096000Y6409226D01*
X6096000Y10513774D01*
X6098421Y10538355D01*
X6120112Y10647405D01*
X6138926Y10692826D01*
X6141056Y10696013D01*
X6200699Y10785276D01*
X6216369Y10804369D01*
X7118630Y11706630D01*
X7137723Y11722300D01*
X7230173Y11784073D01*
X7275593Y11802887D01*
X7384644Y11824579D01*
X7409226Y11827000D01*
X8846774Y11827000D01*
X8871356Y11824579D01*
G37*
%TD.AperFunction*%
%TD*%
M02*
