M48
; DRILL file {KiCad 7.0.1} date Thu Sep 28 18:09:27 2023
; FORMAT={-:-/ absolute / inch / decimal}
; #@! TF.CreationDate,2023-09-28T18:09:27+08:00
; #@! TF.GenerationSoftware,Kicad,Pcbnew,7.0.1
; #@! TF.FileFunction,Plated,1,2,PTH
FMAT,2
INCH
; #@! TA.AperFunction,Plated,PTH,ViaDrill
T1C0.0120
; #@! TA.AperFunction,Plated,PTH,ComponentDrill
T2C0.0197
; #@! TA.AperFunction,Plated,PTH,ComponentDrill
T3C0.0394
%
G90
G05
T1
X0.05Y0.7106
X0.05Y0.6106
X0.05Y0.4106
X0.05Y0.3106
X0.05Y0.2106
X0.05Y0.1106
X0.1Y0.3606
X0.1Y0.2606
X0.1Y0.05
X0.15Y0.7106
X0.15Y0.6106
X0.15Y0.5156
X0.15Y0.4106
X0.15Y0.3106
X0.15Y0.2106
X0.15Y0.1106
X0.2Y0.05
X0.25Y0.7106
X0.25Y0.6106
X0.25Y0.1106
X0.3Y0.05
X0.32Y0.3906
X0.325Y0.2756
X0.33Y0.4306
X0.33Y0.2356
X0.33Y0.2106
X0.34Y0.4526
X0.35Y0.7106
X0.35Y0.6106
X0.355Y0.4306
X0.355Y0.2106
X0.4Y0.3186
X0.42Y0.3756
X0.44Y0.3186
X0.44Y0.2356
X0.45Y0.7106
X0.45Y0.6106
X0.45Y0.1906
X0.46Y0.49
X0.48Y0.3956
X0.485Y0.5256
X0.485Y0.2956
X0.54Y0.3056
X0.55Y0.7106
X0.55Y0.6106
X0.56Y0.2056
X0.56Y0.1606
X0.6Y0.3056
X0.61Y0.4706
X0.61Y0.4306
X0.62Y0.1606
X0.63Y0.4906
X0.63Y0.4506
X0.63Y0.4106
X0.65Y0.7106
X0.65Y0.6106
X0.65Y0.4706
X0.65Y0.4306
X0.685Y0.1606
X0.75Y0.7106
X0.75Y0.6106
X0.75Y0.1606
X0.755Y0.3306
X0.765Y0.5306
X0.7685Y0.4523
X0.79Y0.4056
X0.791Y0.4747
X0.795Y0.1606
X0.81Y0.4256
X0.8288Y0.4518
X0.84Y0.1606
X0.855Y0.5221
X0.873Y0.389
X0.883Y0.365
X0.885Y0.5256
X0.9021Y0.4256
X0.915Y0.1606
X1.015Y0.5306
X1.02Y0.1606
X1.022Y0.3606
X1.048Y0.3866
X1.048Y0.3606
X1.048Y0.3346
X1.074Y0.3606
X1.104Y0.2
X1.1051Y0.4705
X1.11Y0.5306
X1.13Y0.4956
X1.19Y0.2956
X1.215Y0.2606
X1.215Y0.2356
X1.24Y0.2456
X1.25Y0.4606
X1.29Y0.3906
X1.29Y0.3656
X1.29Y0.3406
X1.34Y0.4606
X1.345Y0.2806
X1.375Y0.3856
X1.55Y0.5
X1.55Y0.4106
X1.55Y0.3106
X1.55Y0.2106
X1.55Y0.1106
X1.65Y0.5
X1.65Y0.4106
X1.65Y0.3106
X1.65Y0.2106
X1.65Y0.1106
X1.75Y0.5
X1.75Y0.4106
X1.75Y0.3106
X1.75Y0.2106
X1.75Y0.1106
X1.85Y0.5
X1.85Y0.4106
X1.85Y0.3106
X1.85Y0.2106
X1.85Y0.1106
T3
X1.4445Y0.4406
X1.4445Y0.3406
X1.4445Y0.2406
X1.4445Y0.1406
T2
G00X0.0862Y0.5076
M15
G01X0.0586Y0.5076
M16
G05
G00X0.0862Y0.1635
M15
G01X0.0586Y0.1635
M16
G05
G00X0.2606Y0.5076
M15
G01X0.2133Y0.5076
M16
G05
G00X0.2606Y0.1635
M15
G01X0.2133Y0.1635
M16
G05
T0
M30
