%TF.GenerationSoftware,KiCad,Pcbnew,7.0.1*%
%TF.CreationDate,2023-09-28T18:09:22+08:00*%
%TF.ProjectId,PD_Fan,50445f46-616e-42e6-9b69-6361645f7063,rev?*%
%TF.SameCoordinates,Original*%
%TF.FileFunction,Soldermask,Top*%
%TF.FilePolarity,Negative*%
%FSLAX46Y46*%
G04 Gerber Fmt 4.6, Leading zero omitted, Abs format (unit mm)*
G04 Created by KiCad (PCBNEW 7.0.1) date 2023-09-28 18:09:22*
%MOMM*%
%LPD*%
G01*
G04 APERTURE LIST*
G04 Aperture macros list*
%AMRoundRect*
0 Rectangle with rounded corners*
0 $1 Rounding radius*
0 $2 $3 $4 $5 $6 $7 $8 $9 X,Y pos of 4 corners*
0 Add a 4 corners polygon primitive as box body*
4,1,4,$2,$3,$4,$5,$6,$7,$8,$9,$2,$3,0*
0 Add four circle primitives for the rounded corners*
1,1,$1+$1,$2,$3*
1,1,$1+$1,$4,$5*
1,1,$1+$1,$6,$7*
1,1,$1+$1,$8,$9*
0 Add four rect primitives between the rounded corners*
20,1,$1+$1,$2,$3,$4,$5,0*
20,1,$1+$1,$4,$5,$6,$7,0*
20,1,$1+$1,$6,$7,$8,$9,0*
20,1,$1+$1,$8,$9,$2,$3,0*%
G04 Aperture macros list end*
%ADD10C,0.100000*%
%ADD11R,1.700000X1.700000*%
%ADD12O,1.700000X1.700000*%
%ADD13RoundRect,0.147500X0.172500X-0.147500X0.172500X0.147500X-0.172500X0.147500X-0.172500X-0.147500X0*%
%ADD14C,1.200000*%
%ADD15R,0.800000X0.900000*%
%ADD16R,0.800000X1.050000*%
%ADD17RoundRect,0.147500X-0.172500X0.147500X-0.172500X-0.147500X0.172500X-0.147500X0.172500X0.147500X0*%
%ADD18RoundRect,0.147500X-0.147500X-0.172500X0.147500X-0.172500X0.147500X0.172500X-0.147500X0.172500X0*%
%ADD19R,1.100000X0.510000*%
%ADD20RoundRect,0.147500X0.147500X0.172500X-0.147500X0.172500X-0.147500X-0.172500X0.147500X-0.172500X0*%
%ADD21RoundRect,0.190400X-0.209600X-0.209600X0.209600X-0.209600X0.209600X0.209600X-0.209600X0.209600X0*%
%ADD22RoundRect,0.050000X-0.350000X-0.050000X0.350000X-0.050000X0.350000X0.050000X-0.350000X0.050000X0*%
%ADD23RoundRect,0.050000X-0.050000X-0.350000X0.050000X-0.350000X0.050000X0.350000X-0.050000X0.350000X0*%
%ADD24C,0.650000*%
%ADD25R,1.450000X0.600000*%
%ADD26R,1.450000X0.300000*%
%ADD27O,2.100000X1.000000*%
%ADD28O,1.600000X1.000000*%
G04 APERTURE END LIST*
%TO.C,U2*%
D10*
X16764000Y10177000D02*
X16256000Y10177000D01*
X16256000Y10685000D01*
X16764000Y10685000D01*
X16764000Y10177000D01*
G36*
X16764000Y10177000D02*
G01*
X16256000Y10177000D01*
X16256000Y10685000D01*
X16764000Y10685000D01*
X16764000Y10177000D01*
G37*
X16764000Y11193000D02*
X16256000Y11193000D01*
X16256000Y11701000D01*
X16764000Y11701000D01*
X16764000Y11193000D01*
G36*
X16764000Y11193000D02*
G01*
X16256000Y11193000D01*
X16256000Y11701000D01*
X16764000Y11701000D01*
X16764000Y11193000D01*
G37*
X16764000Y12209000D02*
X16256000Y12209000D01*
X16256000Y12717000D01*
X16764000Y12717000D01*
X16764000Y12209000D01*
G36*
X16764000Y12209000D02*
G01*
X16256000Y12209000D01*
X16256000Y12717000D01*
X16764000Y12717000D01*
X16764000Y12209000D01*
G37*
X15748000Y10177000D02*
X15240000Y10177000D01*
X15240000Y10685000D01*
X15748000Y10685000D01*
X15748000Y10177000D01*
G36*
X15748000Y10177000D02*
G01*
X15240000Y10177000D01*
X15240000Y10685000D01*
X15748000Y10685000D01*
X15748000Y10177000D01*
G37*
X15748000Y11193000D02*
X15240000Y11193000D01*
X15240000Y11701000D01*
X15748000Y11701000D01*
X15748000Y11193000D01*
G36*
X15748000Y11193000D02*
G01*
X15240000Y11193000D01*
X15240000Y11701000D01*
X15748000Y11701000D01*
X15748000Y11193000D01*
G37*
X15748000Y12209000D02*
X15240000Y12209000D01*
X15240000Y12717000D01*
X15748000Y12717000D01*
X15748000Y12209000D01*
G36*
X15748000Y12209000D02*
G01*
X15240000Y12209000D01*
X15240000Y12717000D01*
X15748000Y12717000D01*
X15748000Y12209000D01*
G37*
%TO.C,J2*%
X7113000Y12630000D02*
X4827000Y12630000D01*
X4827000Y13646000D01*
X7113000Y13646000D01*
X7113000Y12630000D01*
G36*
X7113000Y12630000D02*
G01*
X4827000Y12630000D01*
X4827000Y13646000D01*
X7113000Y13646000D01*
X7113000Y12630000D01*
G37*
X2795000Y11360000D02*
X763000Y11360000D01*
X763000Y13646000D01*
X2795000Y13646000D01*
X2795000Y11360000D01*
G36*
X2795000Y11360000D02*
G01*
X763000Y11360000D01*
X763000Y13646000D01*
X2795000Y13646000D01*
X2795000Y11360000D01*
G37*
X2795000Y7246000D02*
X763000Y7246000D01*
X763000Y9786000D01*
X2795000Y9786000D01*
X2795000Y7246000D01*
G36*
X2795000Y7246000D02*
G01*
X763000Y7246000D01*
X763000Y9786000D01*
X2795000Y9786000D01*
X2795000Y7246000D01*
G37*
X7113000Y3386000D02*
X4827000Y3386000D01*
X4827000Y4402000D01*
X7113000Y4402000D01*
X7113000Y3386000D01*
G36*
X7113000Y3386000D02*
G01*
X4827000Y3386000D01*
X4827000Y4402000D01*
X7113000Y4402000D01*
X7113000Y3386000D01*
G37*
X2795000Y3386000D02*
X763000Y3386000D01*
X763000Y5672000D01*
X2795000Y5672000D01*
X2795000Y3386000D01*
G36*
X2795000Y3386000D02*
G01*
X763000Y3386000D01*
X763000Y5672000D01*
X2795000Y5672000D01*
X2795000Y3386000D01*
G37*
%TD*%
D11*
%TO.C,J1*%
X36691200Y3572000D03*
D12*
X36691200Y6112000D03*
X36691200Y8652000D03*
X36691200Y11192000D03*
%TD*%
D13*
%TO.C,C8*%
X21219000Y4780300D03*
X21219000Y5750300D03*
%TD*%
%TO.C,R1*%
X12268000Y5898000D03*
X12268000Y6868000D03*
%TD*%
%TO.C,C5*%
X11176000Y8565000D03*
X11176000Y9535000D03*
%TD*%
%TO.C,R2*%
X26416000Y12485000D03*
X26416000Y13455000D03*
%TD*%
%TO.C,R5*%
X9144000Y8565000D03*
X9144000Y9535000D03*
%TD*%
%TO.C,C9*%
X19888000Y8461000D03*
X19888000Y9431000D03*
%TD*%
D14*
%TO.C,TP4*%
X24511000Y5858000D03*
%TD*%
D13*
%TO.C,C6*%
X19034600Y4777900D03*
X19034600Y5747900D03*
%TD*%
%TO.C,D2*%
X10160000Y8565000D03*
X10160000Y9535000D03*
%TD*%
%TO.C,R9*%
X20904000Y8461000D03*
X20904000Y9431000D03*
%TD*%
%TO.C,R3*%
X13284000Y5898000D03*
X13284000Y6868000D03*
%TD*%
D15*
%TO.C,Y1*%
X31995000Y7461000D03*
X31995000Y8861000D03*
X30895000Y8861000D03*
X30895000Y7461000D03*
%TD*%
D16*
%TO.C,U1*%
X15763000Y5181000D03*
X17663000Y5181000D03*
X16713000Y7331000D03*
%TD*%
D13*
%TO.C,C3*%
X14300000Y5898000D03*
X14300000Y6868000D03*
%TD*%
%TO.C,D1*%
X10160000Y6643000D03*
X10160000Y7613000D03*
%TD*%
D14*
%TO.C,TP3*%
X22936000Y7128000D03*
%TD*%
D17*
%TO.C,C12*%
X22936000Y9431000D03*
X22936000Y8461000D03*
%TD*%
D18*
%TO.C,R6*%
X26030000Y5604000D03*
X27000000Y5604000D03*
%TD*%
D14*
%TO.C,TP5*%
X29591000Y6239000D03*
%TD*%
D13*
%TO.C,C4*%
X11176000Y6660000D03*
X11176000Y7630000D03*
%TD*%
D19*
%TO.C,U2*%
X18552000Y9447000D03*
X18552000Y10447000D03*
X18552000Y11447000D03*
X18552000Y12447000D03*
X18552000Y13447000D03*
X13452000Y13447000D03*
X13452000Y12447000D03*
X13452000Y11447000D03*
X13452000Y10447000D03*
X13452000Y9447000D03*
%TD*%
D13*
%TO.C,R8*%
X12192000Y8565000D03*
X12192000Y9535000D03*
%TD*%
%TO.C,C7*%
X20126800Y4780300D03*
X20126800Y5750300D03*
%TD*%
D20*
%TO.C,C11*%
X31803000Y10066000D03*
X30833000Y10066000D03*
%TD*%
D17*
%TO.C,R4*%
X9144000Y7613000D03*
X9144000Y6643000D03*
%TD*%
D18*
%TO.C,C13*%
X21943000Y10343000D03*
X22913000Y10343000D03*
%TD*%
D14*
%TO.C,TP2*%
X9220000Y13986000D03*
%TD*%
D13*
%TO.C,C15*%
X34290000Y7659000D03*
X34290000Y8629000D03*
%TD*%
D17*
%TO.C,C10*%
X21920000Y9431000D03*
X21920000Y8461000D03*
%TD*%
D14*
%TO.C,TP1*%
X19796600Y7075900D03*
%TD*%
D20*
%TO.C,R7*%
X11229000Y11463000D03*
X10259000Y11463000D03*
%TD*%
D18*
%TO.C,C14*%
X21943000Y11359000D03*
X22913000Y11359000D03*
%TD*%
D17*
%TO.C,C2*%
X27432000Y13455000D03*
X27432000Y12485000D03*
%TD*%
%TO.C,C1*%
X9220000Y12433000D03*
X9220000Y11463000D03*
%TD*%
D21*
%TO.C,U3*%
X25969000Y9827000D03*
X25969000Y8527000D03*
X27269000Y9827000D03*
X27269000Y8527000D03*
D22*
X24619000Y10377000D03*
X24619000Y9977000D03*
X24619000Y9577000D03*
X24619000Y9177000D03*
X24619000Y8777000D03*
X24619000Y8377000D03*
X24619000Y7977000D03*
D23*
X25419000Y7177000D03*
X25819000Y7177000D03*
X26219000Y7177000D03*
X26619000Y7177000D03*
X27019000Y7177000D03*
X27419000Y7177000D03*
X27819000Y7177000D03*
D22*
X28619000Y7977000D03*
X28619000Y8377000D03*
X28619000Y8777000D03*
X28619000Y9177000D03*
X28619000Y9577000D03*
X28619000Y9977000D03*
X28619000Y10377000D03*
D23*
X27819000Y11177000D03*
X27419000Y11177000D03*
X27019000Y11177000D03*
X26619000Y11177000D03*
X26219000Y11177000D03*
X25819000Y11177000D03*
X25419000Y11177000D03*
%TD*%
D24*
%TO.C,J2*%
X5489000Y11412000D03*
X5489000Y5632000D03*
D25*
X6934000Y11772000D03*
X6934000Y10972000D03*
D26*
X6934000Y9772000D03*
X6934000Y8772000D03*
X6934000Y8272000D03*
X6934000Y7272000D03*
D25*
X6934000Y6072000D03*
X6934000Y5272000D03*
X6934000Y5272000D03*
X6934000Y6072000D03*
D26*
X6934000Y6772000D03*
X6934000Y7772000D03*
X6934000Y9272000D03*
X6934000Y10272000D03*
D25*
X6934000Y10972000D03*
X6934000Y11772000D03*
D27*
X6019000Y12892000D03*
D28*
X1839000Y12892000D03*
D27*
X6019000Y4152000D03*
D28*
X1839000Y4152000D03*
%TD*%
M02*
