%TF.GenerationSoftware,KiCad,Pcbnew,(7.0.0)*%
%TF.CreationDate,2023-09-28T18:00:51+08:00*%
%TF.ProjectId,PD_Fan,50445f46-616e-42e6-9b69-6361645f7063,rev?*%
%TF.SameCoordinates,Original*%
%TF.FileFunction,Legend,Top*%
%TF.FilePolarity,Positive*%
%FSLAX46Y46*%
G04 Gerber Fmt 4.6, Leading zero omitted, Abs format (unit mm)*
G04 Created by KiCad (PCBNEW (7.0.0)) date 2023-09-28 18:00:51*
%MOMM*%
%LPD*%
G01*
G04 APERTURE LIST*
%ADD10C,0.120000*%
%ADD11C,0.245000*%
%ADD12C,0.152400*%
%ADD13C,0.304800*%
%ADD14C,0.600000*%
G04 APERTURE END LIST*
D10*
%TO.C,C13*%
X22428000Y10597000D02*
X22428000Y10089000D01*
D11*
%TO.C,J2*%
X889000Y3822000D02*
X-1011000Y3822000D01*
X4789000Y3822000D02*
X2789000Y3822000D01*
X-1011000Y13222000D02*
X-1011000Y3822000D01*
X889000Y13222000D02*
X-1011000Y13222000D01*
X4789000Y13222000D02*
X2789000Y13222000D01*
D10*
%TO.C,C3*%
X14046000Y6383000D02*
X14554000Y6383000D01*
%TO.C,U1*%
X18293000Y7016000D02*
X17363000Y7016000D01*
X18293000Y7016000D02*
X18293000Y5556000D01*
X15133000Y7016000D02*
X16063000Y7016000D01*
X15133000Y7016000D02*
X15133000Y4856000D01*
%TO.C,C15*%
X34036000Y8144000D02*
X34544000Y8144000D01*
D12*
%TO.C,ANT1*%
X30883000Y13331000D02*
X30483000Y13331000D01*
D10*
%TO.C,J1*%
X38021200Y2242000D02*
X36691200Y2242000D01*
X38021200Y3572000D02*
X38021200Y2242000D01*
X38021200Y4842000D02*
X38021200Y12522000D01*
X38021200Y4842000D02*
X35361200Y4842000D01*
X38021200Y12522000D02*
X35361200Y12522000D01*
X35361200Y4842000D02*
X35361200Y12522000D01*
%TO.C,C8*%
X20965000Y5265300D02*
X21473000Y5265300D01*
%TO.C,R1*%
X12014000Y6383000D02*
X12522000Y6383000D01*
%TO.C,C5*%
X10922000Y9050000D02*
X11430000Y9050000D01*
%TO.C,R2*%
X26162000Y12970000D02*
X26670000Y12970000D01*
%TO.C,R5*%
X8890000Y9050000D02*
X9398000Y9050000D01*
%TO.C,C9*%
X19634000Y8946000D02*
X20142000Y8946000D01*
%TO.C,TP4*%
X25171000Y5858000D02*
G75*
G03*
X25171000Y5858000I-660000J0D01*
G01*
%TO.C,C6*%
X18780600Y5262900D02*
X19288600Y5262900D01*
%TO.C,D2*%
X9906000Y9050000D02*
X10414000Y9050000D01*
%TO.C,R9*%
X20650000Y8946000D02*
X21158000Y8946000D01*
%TO.C,R3*%
X13030000Y6383000D02*
X13538000Y6383000D01*
%TO.C,Y1*%
X30295000Y6811000D02*
X32595000Y6811000D01*
X32595000Y6811000D02*
X32595000Y9511000D01*
%TO.C,D1*%
X9906000Y7128000D02*
X10414000Y7128000D01*
%TO.C,TP3*%
X23596000Y7128000D02*
G75*
G03*
X23596000Y7128000I-660000J0D01*
G01*
%TO.C,C12*%
X23190000Y8946000D02*
X22682000Y8946000D01*
%TO.C,R6*%
X26515000Y5858000D02*
X26515000Y5350000D01*
%TO.C,TP5*%
X30251000Y6239000D02*
G75*
G03*
X30251000Y6239000I-660000J0D01*
G01*
%TO.C,C4*%
X10922000Y7145000D02*
X11430000Y7145000D01*
D12*
%TO.C,U2*%
X17952000Y8997000D02*
X17952000Y13897000D01*
X17952000Y8997000D02*
X14052000Y8997000D01*
X14052000Y8997000D02*
X14052000Y13897000D01*
X14052000Y13897000D02*
X17952000Y13897000D01*
D13*
X18694400Y8653000D02*
G75*
G03*
X18694400Y8653000I-152400J0D01*
G01*
D10*
%TO.C,R8*%
X11938000Y9050000D02*
X12446000Y9050000D01*
%TO.C,C7*%
X19872800Y5265300D02*
X20380800Y5265300D01*
%TO.C,C11*%
X31318000Y9812000D02*
X31318000Y10320000D01*
%TO.C,R4*%
X9398000Y7128000D02*
X8890000Y7128000D01*
%TO.C,TP2*%
X9880000Y13986000D02*
G75*
G03*
X9880000Y13986000I-660000J0D01*
G01*
%TO.C,C10*%
X22174000Y8946000D02*
X21666000Y8946000D01*
%TO.C,TP1*%
X20456600Y7075900D02*
G75*
G03*
X20456600Y7075900I-660000J0D01*
G01*
%TO.C,R7*%
X10744000Y11209000D02*
X10744000Y11717000D01*
%TO.C,C14*%
X22428000Y11613000D02*
X22428000Y11105000D01*
%TO.C,C2*%
X27686000Y12970000D02*
X27178000Y12970000D01*
%TO.C,C1*%
X9474000Y11948000D02*
X8966000Y11948000D01*
%TO.C,U3*%
X24509000Y7067000D02*
X24509000Y7617000D01*
X25059000Y7067000D02*
X24509000Y7067000D01*
X28179000Y11287000D02*
X28729000Y11287000D01*
X28179000Y7067000D02*
X28729000Y7067000D01*
X28729000Y11287000D02*
X28729000Y10737000D01*
X28729000Y7067000D02*
X28729000Y7617000D01*
D14*
X24633000Y11463000D02*
G75*
G03*
X24633000Y11463000I-300000J0D01*
G01*
%TD*%
M02*
