%TF.GenerationSoftware,KiCad,Pcbnew,(7.0.0)*%
%TF.CreationDate,2023-09-28T18:00:51+08:00*%
%TF.ProjectId,PD_Fan,50445f46-616e-42e6-9b69-6361645f7063,rev?*%
%TF.SameCoordinates,Original*%
%TF.FileFunction,Soldermask,Top*%
%TF.FilePolarity,Negative*%
%FSLAX46Y46*%
G04 Gerber Fmt 4.6, Leading zero omitted, Abs format (unit mm)*
G04 Created by KiCad (PCBNEW (7.0.0)) date 2023-09-28 18:00:51*
%MOMM*%
%LPD*%
G01*
G04 APERTURE LIST*
G04 Aperture macros list*
%AMRoundRect*
0 Rectangle with rounded corners*
0 $1 Rounding radius*
0 $2 $3 $4 $5 $6 $7 $8 $9 X,Y pos of 4 corners*
0 Add a 4 corners polygon primitive as box body*
4,1,4,$2,$3,$4,$5,$6,$7,$8,$9,$2,$3,0*
0 Add four circle primitives for the rounded corners*
1,1,$1+$1,$2,$3*
1,1,$1+$1,$4,$5*
1,1,$1+$1,$6,$7*
1,1,$1+$1,$8,$9*
0 Add four rect primitives between the rounded corners*
20,1,$1+$1,$2,$3,$4,$5,0*
20,1,$1+$1,$4,$5,$6,$7,0*
20,1,$1+$1,$6,$7,$8,$9,0*
20,1,$1+$1,$8,$9,$2,$3,0*%
G04 Aperture macros list end*
%ADD10C,0.100000*%
%ADD11RoundRect,0.147500X-0.147500X-0.172500X0.147500X-0.172500X0.147500X0.172500X-0.147500X0.172500X0*%
%ADD12O,1.600000X1.000000*%
%ADD13O,2.100000X1.000000*%
%ADD14R,1.450000X0.600000*%
%ADD15R,1.450000X0.300000*%
%ADD16C,0.650000*%
%ADD17RoundRect,0.147500X0.172500X-0.147500X0.172500X0.147500X-0.172500X0.147500X-0.172500X-0.147500X0*%
%ADD18R,0.800000X1.050000*%
%ADD19R,1.700000X1.700000*%
%ADD20O,1.700000X1.700000*%
%ADD21C,1.200000*%
%ADD22R,0.800000X0.900000*%
%ADD23RoundRect,0.147500X-0.172500X0.147500X-0.172500X-0.147500X0.172500X-0.147500X0.172500X0.147500X0*%
%ADD24R,1.100000X0.510000*%
%ADD25RoundRect,0.147500X0.147500X0.172500X-0.147500X0.172500X-0.147500X-0.172500X0.147500X-0.172500X0*%
%ADD26RoundRect,0.190400X-0.209600X-0.209600X0.209600X-0.209600X0.209600X0.209600X-0.209600X0.209600X0*%
%ADD27RoundRect,0.050000X-0.350000X-0.050000X0.350000X-0.050000X0.350000X0.050000X-0.350000X0.050000X0*%
%ADD28RoundRect,0.050000X-0.050000X-0.350000X0.050000X-0.350000X0.050000X0.350000X-0.050000X0.350000X0*%
G04 APERTURE END LIST*
%TO.C,J2*%
G36*
X2795000Y3386000D02*
G01*
X763000Y3386000D01*
X763000Y5672000D01*
X2795000Y5672000D01*
X2795000Y3386000D01*
G37*
D10*
X2795000Y3386000D02*
X763000Y3386000D01*
X763000Y5672000D01*
X2795000Y5672000D01*
X2795000Y3386000D01*
G36*
X7113000Y3386000D02*
G01*
X4827000Y3386000D01*
X4827000Y4402000D01*
X7113000Y4402000D01*
X7113000Y3386000D01*
G37*
X7113000Y3386000D02*
X4827000Y3386000D01*
X4827000Y4402000D01*
X7113000Y4402000D01*
X7113000Y3386000D01*
G36*
X2795000Y7246000D02*
G01*
X763000Y7246000D01*
X763000Y9786000D01*
X2795000Y9786000D01*
X2795000Y7246000D01*
G37*
X2795000Y7246000D02*
X763000Y7246000D01*
X763000Y9786000D01*
X2795000Y9786000D01*
X2795000Y7246000D01*
G36*
X2795000Y11360000D02*
G01*
X763000Y11360000D01*
X763000Y13646000D01*
X2795000Y13646000D01*
X2795000Y11360000D01*
G37*
X2795000Y11360000D02*
X763000Y11360000D01*
X763000Y13646000D01*
X2795000Y13646000D01*
X2795000Y11360000D01*
G36*
X7113000Y12630000D02*
G01*
X4827000Y12630000D01*
X4827000Y13646000D01*
X7113000Y13646000D01*
X7113000Y12630000D01*
G37*
X7113000Y12630000D02*
X4827000Y12630000D01*
X4827000Y13646000D01*
X7113000Y13646000D01*
X7113000Y12630000D01*
%TO.C,U2*%
G36*
X16764000Y10177000D02*
G01*
X16256000Y10177000D01*
X16256000Y10685000D01*
X16764000Y10685000D01*
X16764000Y10177000D01*
G37*
X16764000Y10177000D02*
X16256000Y10177000D01*
X16256000Y10685000D01*
X16764000Y10685000D01*
X16764000Y10177000D01*
G36*
X16764000Y11193000D02*
G01*
X16256000Y11193000D01*
X16256000Y11701000D01*
X16764000Y11701000D01*
X16764000Y11193000D01*
G37*
X16764000Y11193000D02*
X16256000Y11193000D01*
X16256000Y11701000D01*
X16764000Y11701000D01*
X16764000Y11193000D01*
G36*
X16764000Y12209000D02*
G01*
X16256000Y12209000D01*
X16256000Y12717000D01*
X16764000Y12717000D01*
X16764000Y12209000D01*
G37*
X16764000Y12209000D02*
X16256000Y12209000D01*
X16256000Y12717000D01*
X16764000Y12717000D01*
X16764000Y12209000D01*
G36*
X15748000Y10177000D02*
G01*
X15240000Y10177000D01*
X15240000Y10685000D01*
X15748000Y10685000D01*
X15748000Y10177000D01*
G37*
X15748000Y10177000D02*
X15240000Y10177000D01*
X15240000Y10685000D01*
X15748000Y10685000D01*
X15748000Y10177000D01*
G36*
X15748000Y11193000D02*
G01*
X15240000Y11193000D01*
X15240000Y11701000D01*
X15748000Y11701000D01*
X15748000Y11193000D01*
G37*
X15748000Y11193000D02*
X15240000Y11193000D01*
X15240000Y11701000D01*
X15748000Y11701000D01*
X15748000Y11193000D01*
G36*
X15748000Y12209000D02*
G01*
X15240000Y12209000D01*
X15240000Y12717000D01*
X15748000Y12717000D01*
X15748000Y12209000D01*
G37*
X15748000Y12209000D02*
X15240000Y12209000D01*
X15240000Y12717000D01*
X15748000Y12717000D01*
X15748000Y12209000D01*
%TD*%
D11*
%TO.C,C13*%
X21943000Y10343000D03*
X22913000Y10343000D03*
%TD*%
D12*
%TO.C,J2*%
X1838999Y4151999D03*
D13*
X6018999Y4151999D03*
D12*
X1838999Y12891999D03*
D13*
X6018999Y12891999D03*
D14*
X6933999Y11771999D03*
X6933999Y10971999D03*
D15*
X6933999Y10271999D03*
X6933999Y9271999D03*
X6933999Y7771999D03*
X6933999Y6771999D03*
D14*
X6933999Y6071999D03*
X6933999Y5271999D03*
X6933999Y5271999D03*
X6933999Y6071999D03*
D15*
X6933999Y7271999D03*
X6933999Y8271999D03*
X6933999Y8771999D03*
X6933999Y9771999D03*
D14*
X6933999Y10971999D03*
X6933999Y11771999D03*
D16*
X5489000Y5632000D03*
X5489000Y11412000D03*
%TD*%
D17*
%TO.C,C3*%
X14300000Y5898000D03*
X14300000Y6868000D03*
%TD*%
D18*
%TO.C,U1*%
X16712999Y7330999D03*
X17662999Y5180999D03*
X15762999Y5180999D03*
%TD*%
D17*
%TO.C,C15*%
X34290000Y7659000D03*
X34290000Y8629000D03*
%TD*%
D19*
%TO.C,J1*%
X36691199Y3571999D03*
D20*
X36691199Y6111999D03*
X36691199Y8651999D03*
X36691199Y11191999D03*
%TD*%
D17*
%TO.C,C8*%
X21219000Y4780300D03*
X21219000Y5750300D03*
%TD*%
%TO.C,R1*%
X12268000Y5898000D03*
X12268000Y6868000D03*
%TD*%
%TO.C,C5*%
X11176000Y8565000D03*
X11176000Y9535000D03*
%TD*%
%TO.C,R2*%
X26416000Y13455000D03*
X26416000Y12485000D03*
%TD*%
%TO.C,R5*%
X9144000Y8565000D03*
X9144000Y9535000D03*
%TD*%
%TO.C,C9*%
X19888000Y8461000D03*
X19888000Y9431000D03*
%TD*%
D21*
%TO.C,TP4*%
X24511000Y5858000D03*
%TD*%
D17*
%TO.C,C6*%
X19034600Y4777900D03*
X19034600Y5747900D03*
%TD*%
%TO.C,D2*%
X10160000Y8565000D03*
X10160000Y9535000D03*
%TD*%
%TO.C,R9*%
X20904000Y8461000D03*
X20904000Y9431000D03*
%TD*%
%TO.C,R3*%
X13284000Y5898000D03*
X13284000Y6868000D03*
%TD*%
D22*
%TO.C,Y1*%
X31994999Y7460999D03*
X31994999Y8860999D03*
X30894999Y8860999D03*
X30894999Y7460999D03*
%TD*%
D17*
%TO.C,D1*%
X10160000Y6643000D03*
X10160000Y7613000D03*
%TD*%
D21*
%TO.C,TP3*%
X22936000Y7128000D03*
%TD*%
D23*
%TO.C,C12*%
X22936000Y9431000D03*
X22936000Y8461000D03*
%TD*%
D11*
%TO.C,R6*%
X26030000Y5604000D03*
X27000000Y5604000D03*
%TD*%
D21*
%TO.C,TP5*%
X29591000Y6239000D03*
%TD*%
D17*
%TO.C,C4*%
X11176000Y6660000D03*
X11176000Y7630000D03*
%TD*%
D24*
%TO.C,U2*%
X18551999Y9446999D03*
X18551999Y10446999D03*
X18551999Y11446999D03*
X18551999Y12446999D03*
X18551999Y13446999D03*
X13451999Y13446999D03*
X13451999Y12446999D03*
X13451999Y11446999D03*
X13451999Y10446999D03*
X13451999Y9446999D03*
%TD*%
D17*
%TO.C,R8*%
X12192000Y8565000D03*
X12192000Y9535000D03*
%TD*%
%TO.C,C7*%
X20126800Y4780300D03*
X20126800Y5750300D03*
%TD*%
D25*
%TO.C,C11*%
X31803000Y10066000D03*
X30833000Y10066000D03*
%TD*%
D23*
%TO.C,R4*%
X9144000Y7613000D03*
X9144000Y6643000D03*
%TD*%
D21*
%TO.C,TP2*%
X9220000Y13986000D03*
%TD*%
D23*
%TO.C,C10*%
X21920000Y9431000D03*
X21920000Y8461000D03*
%TD*%
D21*
%TO.C,TP1*%
X19796600Y7075900D03*
%TD*%
D25*
%TO.C,R7*%
X11229000Y11463000D03*
X10259000Y11463000D03*
%TD*%
D11*
%TO.C,C14*%
X21943000Y11359000D03*
X22913000Y11359000D03*
%TD*%
D23*
%TO.C,C2*%
X27432000Y12485000D03*
X27432000Y13455000D03*
%TD*%
%TO.C,C1*%
X9220000Y12433000D03*
X9220000Y11463000D03*
%TD*%
D26*
%TO.C,U3*%
X25969000Y9827000D03*
X25969000Y8527000D03*
X27269000Y9827000D03*
X27269000Y8527000D03*
D27*
X24619000Y10377000D03*
X24619000Y9977000D03*
X24619000Y9577000D03*
X24619000Y9177000D03*
X24619000Y8777000D03*
X24619000Y8377000D03*
X24619000Y7977000D03*
D28*
X25419000Y7177000D03*
X25819000Y7177000D03*
X26219000Y7177000D03*
X26619000Y7177000D03*
X27019000Y7177000D03*
X27419000Y7177000D03*
X27819000Y7177000D03*
D27*
X28619000Y7977000D03*
X28619000Y8377000D03*
X28619000Y8777000D03*
X28619000Y9177000D03*
X28619000Y9577000D03*
X28619000Y9977000D03*
X28619000Y10377000D03*
D28*
X27819000Y11177000D03*
X27419000Y11177000D03*
X27019000Y11177000D03*
X26619000Y11177000D03*
X26219000Y11177000D03*
X25819000Y11177000D03*
X25419000Y11177000D03*
%TD*%
M02*
