%TF.GenerationSoftware,KiCad,Pcbnew,(7.0.0)*%
%TF.CreationDate,2023-09-28T18:00:51+08:00*%
%TF.ProjectId,PD_Fan,50445f46-616e-42e6-9b69-6361645f7063,rev?*%
%TF.SameCoordinates,Original*%
%TF.FileFunction,Copper,L2,Bot*%
%TF.FilePolarity,Positive*%
%FSLAX46Y46*%
G04 Gerber Fmt 4.6, Leading zero omitted, Abs format (unit mm)*
G04 Created by KiCad (PCBNEW (7.0.0)) date 2023-09-28 18:00:51*
%MOMM*%
%LPD*%
G01*
G04 APERTURE LIST*
%TA.AperFunction,ComponentPad*%
%ADD10O,1.600000X1.000000*%
%TD*%
%TA.AperFunction,ComponentPad*%
%ADD11O,2.100000X1.000000*%
%TD*%
%TA.AperFunction,ComponentPad*%
%ADD12R,1.700000X1.700000*%
%TD*%
%TA.AperFunction,ComponentPad*%
%ADD13O,1.700000X1.700000*%
%TD*%
%TA.AperFunction,ViaPad*%
%ADD14C,0.609600*%
%TD*%
%TA.AperFunction,Conductor*%
%ADD15C,0.177800*%
%TD*%
%TA.AperFunction,Conductor*%
%ADD16C,0.254000*%
%TD*%
G04 APERTURE END LIST*
D10*
%TO.P,J2,S1,SHIELD*%
%TO.N,GND*%
X1838999Y4151999D03*
D11*
X6018999Y4151999D03*
D10*
X1838999Y12891999D03*
D11*
X6018999Y12891999D03*
%TD*%
D12*
%TO.P,J1,1,Pin_1*%
%TO.N,GND*%
X36691199Y3571999D03*
D13*
%TO.P,J1,2,Pin_2*%
%TO.N,USB-VIN*%
X36691199Y6111999D03*
%TO.P,J1,3,Pin_3*%
%TO.N,/Sense*%
X36691199Y8651999D03*
%TO.P,J1,4,Pin_4*%
%TO.N,/Control*%
X36691199Y11191999D03*
%TD*%
D14*
%TO.N,GND*%
X22428200Y9271000D03*
X46990000Y12700000D03*
X44450000Y12700000D03*
X41910000Y12700000D03*
X39370000Y12700000D03*
X7620000Y1270000D03*
X5080000Y1270000D03*
X2540000Y1270000D03*
X16510000Y11954000D03*
X15494000Y11954000D03*
X15494000Y10938000D03*
X16510000Y10938000D03*
X16002000Y10430000D03*
X16002000Y11446000D03*
X16002000Y12462000D03*
X25908000Y4080000D03*
X23241000Y4080000D03*
X11430000Y4842000D03*
X13716000Y7763000D03*
X25781000Y13478000D03*
X28702000Y12589000D03*
X28194000Y13478000D03*
X34036000Y11700000D03*
X31750000Y11700000D03*
X34925000Y9795000D03*
X17399000Y4080000D03*
X14224000Y4080000D03*
X15748000Y4080000D03*
X21336000Y4080000D03*
X20193000Y4080000D03*
X19050000Y4080000D03*
X2540000Y9160000D03*
X2540000Y6620000D03*
X1270000Y5350000D03*
X3810000Y5350000D03*
X1270000Y7890000D03*
X3810000Y7890000D03*
X1270000Y10430000D03*
X3810000Y10430000D03*
X3810000Y13097000D03*
X44450000Y7890000D03*
X46990000Y7890000D03*
X46990000Y10430000D03*
X44450000Y10430000D03*
X41910000Y10430000D03*
X39370000Y10430000D03*
X41910000Y7890000D03*
X39370000Y7890000D03*
X46990000Y2810000D03*
X46990000Y5350000D03*
X44450000Y5350000D03*
X39370000Y5350000D03*
X41910000Y5350000D03*
X41910000Y2810000D03*
X44450000Y2810000D03*
X39370000Y2810000D03*
X6350000Y2810000D03*
X3810000Y2810000D03*
X1270000Y2810000D03*
X8890000Y15510000D03*
X6350000Y15510000D03*
X11430000Y15510000D03*
X13970000Y15510000D03*
X16510000Y15510000D03*
X19050000Y15510000D03*
X19050000Y18050000D03*
X16510000Y18050000D03*
X13970000Y18050000D03*
X11430000Y18050000D03*
X8890000Y18050000D03*
X6350000Y18050000D03*
X3810000Y15510000D03*
X1270000Y15510000D03*
X3810000Y18050000D03*
X1270000Y18050000D03*
X11176000Y8093200D03*
X10160000Y8093200D03*
%TO.N,USB-VIN*%
X9017000Y10938000D03*
X8382000Y10938000D03*
X8636000Y11496800D03*
X9017000Y5350000D03*
X8382000Y5350000D03*
X8382000Y5985000D03*
%TO.N,GND*%
X14224000Y5223000D03*
X15240000Y7763000D03*
X19177000Y8398000D03*
%TO.N,/C-USBDM*%
X10668000Y9541000D03*
%TO.N,GND*%
X22174200Y9880600D03*
X20066000Y10303000D03*
X20574000Y10811000D03*
%TO.N,/C-USBDM*%
X19431000Y13478000D03*
%TO.N,GND*%
X34163000Y7128000D03*
X32766000Y9922000D03*
X32766000Y9287000D03*
X32766000Y8652000D03*
X31496000Y6239000D03*
X30861000Y5985000D03*
X30861000Y6620000D03*
X30226000Y7509000D03*
X26619200Y8499600D03*
X25958800Y9160000D03*
X27279600Y9160000D03*
X26619200Y9160000D03*
X26619200Y9820400D03*
%TO.N,Net-(U3-VDCIA)*%
X28069607Y11951839D03*
X22913000Y10811000D03*
%TO.N,Net-(J2-CC2)*%
X12319000Y13351000D03*
X8255000Y7001000D03*
%TO.N,/C-USBDP*%
X21717000Y13261600D03*
X11176000Y5985000D03*
%TO.N,/VIN_DET*%
X12319000Y7509000D03*
%TO.N,Net-(J2-CC1)*%
X11684000Y12447000D03*
X8128000Y9922000D03*
%TO.N,/VIN_DET*%
X22479000Y13351000D03*
%TO.N,/CFG1*%
X12192000Y10049000D03*
X20090200Y12056801D03*
%TO.N,/CFG3*%
X19521099Y11487699D03*
X21052649Y11475351D03*
%TD*%
D15*
%TO.N,/C-USBDM*%
X14224000Y13478000D02*
X10668000Y9922000D01*
X10668000Y9922000D02*
X10668000Y9541000D01*
X19431000Y13478000D02*
X14224000Y13478000D01*
%TO.N,/C-USBDP*%
X11176000Y7138303D02*
X13375497Y9337800D01*
X11176000Y5985000D02*
X11176000Y7138303D01*
X21717000Y10896974D02*
X21717000Y13261600D01*
X20157826Y9337800D02*
X21717000Y10896974D01*
X13375497Y9337800D02*
X20157826Y9337800D01*
%TO.N,/VIN_DET*%
X13817600Y9007600D02*
X12319000Y7509000D01*
X20294599Y9007600D02*
X13817600Y9007600D01*
X22479000Y11192000D02*
X20294599Y9007600D01*
X22479000Y13351000D02*
X22479000Y11192000D01*
%TO.N,/CFG1*%
X16929096Y9668000D02*
X19317897Y12056801D01*
X12573000Y9668000D02*
X16929096Y9668000D01*
X12192000Y10049000D02*
X12573000Y9668000D01*
X19317897Y12056801D02*
X20090200Y12056801D01*
%TO.N,Net-(J2-CC1)*%
X11684000Y11903200D02*
X11684000Y12447000D01*
X9693026Y9922000D02*
X11674226Y11903200D01*
X11674226Y11903200D02*
X11684000Y11903200D01*
X8128000Y9922000D02*
X9693026Y9922000D01*
%TO.N,Net-(J2-CC2)*%
X12319000Y12070697D02*
X12319000Y13351000D01*
X11811000Y11573000D02*
X11821303Y11573000D01*
X11821303Y11573000D02*
X12319000Y12070697D01*
X8255000Y7001000D02*
X8255000Y8017000D01*
X8255000Y8017000D02*
X11811000Y11573000D01*
D16*
%TO.N,Net-(U3-VDCIA)*%
X24053839Y11951839D02*
X28069607Y11951839D01*
X22913000Y10811000D02*
X24053839Y11951839D01*
D15*
%TO.N,/CFG3*%
X21040301Y11487699D02*
X19521099Y11487699D01*
X21052649Y11475351D02*
X21040301Y11487699D01*
%TD*%
%TA.AperFunction,Conductor*%
%TO.N,GND*%
G36*
X20257000Y19728619D02*
G01*
X20303119Y19682500D01*
X20320000Y19619500D01*
X20320000Y13859000D01*
X21214917Y13859000D01*
X21281453Y13840000D01*
X21327923Y13788728D01*
X21340310Y13720650D01*
X21314880Y13656297D01*
X21228453Y13543663D01*
X21225296Y13536041D01*
X21225294Y13536038D01*
X21175254Y13415232D01*
X21172096Y13407607D01*
X21171018Y13399423D01*
X21171018Y13399421D01*
X21163566Y13342812D01*
X21152874Y13261600D01*
X21153952Y13253412D01*
X21171017Y13123783D01*
X21171018Y13123777D01*
X21172096Y13115593D01*
X21175255Y13107964D01*
X21175258Y13107956D01*
X21188352Y13076345D01*
X21195924Y13050592D01*
X21196785Y13045839D01*
X21196787Y13045829D01*
X21197874Y13039833D01*
X21200091Y13034160D01*
X21200093Y13034155D01*
X21297732Y12784379D01*
X21362627Y12618364D01*
X21364953Y12612415D01*
X21373600Y12566542D01*
X21373600Y12136364D01*
X21358727Y12076978D01*
X21317621Y12031611D01*
X21259984Y12010974D01*
X21214983Y12017634D01*
X21214266Y12014957D01*
X21206283Y12017095D01*
X21198656Y12020255D01*
X21052649Y12039477D01*
X20906642Y12020255D01*
X20899015Y12017095D01*
X20899012Y12017095D01*
X20872022Y12005915D01*
X20844054Y11997961D01*
X20835939Y11996640D01*
X20818107Y11990083D01*
X20762586Y11982920D01*
X20709438Y12000517D01*
X20669161Y12039402D01*
X20649705Y12091894D01*
X20635104Y12202808D01*
X20578747Y12338864D01*
X20489097Y12455698D01*
X20372263Y12545348D01*
X20236207Y12601705D01*
X20090200Y12620927D01*
X19944193Y12601705D01*
X19904939Y12585445D01*
X19879180Y12577873D01*
X19868432Y12575927D01*
X19622440Y12479768D01*
X19441013Y12408848D01*
X19395140Y12400201D01*
X19338389Y12400201D01*
X19327407Y12400680D01*
X19287506Y12404171D01*
X19248800Y12393799D01*
X19238083Y12391424D01*
X19220991Y12388410D01*
X19209491Y12386383D01*
X19209490Y12386382D01*
X19198636Y12384469D01*
X19189089Y12378957D01*
X19185058Y12377490D01*
X19181178Y12375680D01*
X19170531Y12372828D01*
X19161503Y12366506D01*
X19161502Y12366506D01*
X19137714Y12349849D01*
X19128442Y12343942D01*
X19093759Y12323918D01*
X19086674Y12315475D01*
X19086672Y12315473D01*
X19068010Y12293232D01*
X19060584Y12285129D01*
X16823760Y10048305D01*
X16782883Y10020991D01*
X16734665Y10011400D01*
X12902937Y10011400D01*
X12854790Y10020962D01*
X12813951Y10048196D01*
X12786617Y10088968D01*
X12764339Y10142473D01*
X12717645Y10254620D01*
X12710382Y10265454D01*
X12698635Y10287394D01*
X12690591Y10306814D01*
X12680547Y10331063D01*
X12590897Y10447897D01*
X12474063Y10537547D01*
X12338007Y10593904D01*
X12192000Y10613126D01*
X12160128Y10608930D01*
X12098529Y10616221D01*
X12047872Y10652021D01*
X12020436Y10707655D01*
X12022872Y10769638D01*
X12054588Y10822947D01*
X14329336Y13097695D01*
X14370213Y13125009D01*
X14418431Y13134600D01*
X18735942Y13134600D01*
X18781814Y13125953D01*
X18827854Y13107956D01*
X19203555Y12961093D01*
X19203560Y12961091D01*
X19209233Y12958874D01*
X19215229Y12957787D01*
X19215239Y12957785D01*
X19219992Y12956924D01*
X19245745Y12949352D01*
X19277356Y12936258D01*
X19277364Y12936255D01*
X19284993Y12933096D01*
X19293177Y12932018D01*
X19293183Y12932017D01*
X19422812Y12914952D01*
X19431000Y12913874D01*
X19439188Y12914952D01*
X19568821Y12932018D01*
X19568823Y12932018D01*
X19577007Y12933096D01*
X19584629Y12936253D01*
X19584632Y12936254D01*
X19705438Y12986294D01*
X19705441Y12986296D01*
X19713063Y12989453D01*
X19829897Y13079103D01*
X19919547Y13195937D01*
X19975904Y13331993D01*
X19995126Y13478000D01*
X19975904Y13624007D01*
X19919547Y13760063D01*
X19829897Y13876897D01*
X19713063Y13966547D01*
X19577007Y14022904D01*
X19431000Y14042126D01*
X19284993Y14022904D01*
X19245739Y14006644D01*
X19219980Y13999072D01*
X19209232Y13997126D01*
X18793256Y13834520D01*
X18781813Y13830047D01*
X18735940Y13821400D01*
X14244469Y13821400D01*
X14233487Y13821880D01*
X14232881Y13821932D01*
X14193609Y13825369D01*
X14154914Y13815000D01*
X14144197Y13812625D01*
X14104739Y13805668D01*
X14095188Y13800154D01*
X14091169Y13798691D01*
X14087283Y13796879D01*
X14076634Y13794026D01*
X14067605Y13787704D01*
X14043818Y13771048D01*
X14034548Y13765143D01*
X13999862Y13745117D01*
X13989695Y13733000D01*
X13974113Y13714431D01*
X13966687Y13706328D01*
X12909770Y12649411D01*
X12850580Y12616106D01*
X12782702Y12618364D01*
X12725856Y12655528D01*
X12696559Y12716801D01*
X12703322Y12784379D01*
X12724809Y12839347D01*
X12838126Y13129232D01*
X12840072Y13139980D01*
X12847644Y13165739D01*
X12863904Y13204993D01*
X12883126Y13351000D01*
X12863904Y13497007D01*
X12807547Y13633063D01*
X12717897Y13749897D01*
X12601063Y13839547D01*
X12465007Y13895904D01*
X12319000Y13915126D01*
X12172993Y13895904D01*
X12036937Y13839547D01*
X11920103Y13749897D01*
X11830453Y13633063D01*
X11827296Y13625441D01*
X11827294Y13625438D01*
X11790263Y13536038D01*
X11774096Y13497007D01*
X11773018Y13488823D01*
X11773018Y13488821D01*
X11763330Y13415232D01*
X11754874Y13351000D01*
X11755952Y13342812D01*
X11773017Y13213183D01*
X11773018Y13213181D01*
X11774096Y13204993D01*
X11777255Y13197366D01*
X11777257Y13197359D01*
X11782749Y13184101D01*
X11792068Y13127643D01*
X11775456Y13072886D01*
X11736339Y13031122D01*
X11682784Y13010966D01*
X11664402Y13008545D01*
X11537993Y12991904D01*
X11401937Y12935547D01*
X11285103Y12845897D01*
X11195453Y12729063D01*
X11192296Y12721441D01*
X11192294Y12721438D01*
X11142254Y12600632D01*
X11139096Y12593007D01*
X11138018Y12584823D01*
X11138018Y12584821D01*
X11126423Y12496743D01*
X11119874Y12447000D01*
X11120952Y12438812D01*
X11138017Y12309183D01*
X11138018Y12309177D01*
X11139096Y12300993D01*
X11142255Y12293365D01*
X11142256Y12293363D01*
X11142673Y12292356D01*
X11153335Y12266615D01*
X11155743Y12260803D01*
X11163241Y12235449D01*
X11165307Y12224251D01*
X11167556Y12218562D01*
X11167558Y12218556D01*
X11232456Y12054415D01*
X11241275Y12006728D01*
X11231429Y11959242D01*
X11204377Y11918992D01*
X9840874Y10555489D01*
X9784771Y10522980D01*
X9719930Y10522676D01*
X9663524Y10554656D01*
X9630490Y10610452D01*
X9629655Y10669716D01*
X9628401Y10669966D01*
X9633983Y10698030D01*
X9650093Y10779017D01*
X9653830Y10804210D01*
X9656251Y10828792D01*
X9657500Y10854226D01*
X9657500Y11275774D01*
X9656251Y11301208D01*
X9653830Y11325790D01*
X9650093Y11350983D01*
X9628401Y11460033D01*
X9613633Y11508714D01*
X9594819Y11554134D01*
X9570839Y11598996D01*
X9509066Y11691446D01*
X9493892Y11711906D01*
X9478222Y11730999D01*
X9461124Y11749863D01*
X9320863Y11890124D01*
X9301999Y11907222D01*
X9282906Y11922892D01*
X9262446Y11938066D01*
X9169996Y11999839D01*
X9125134Y12023819D01*
X9079714Y12042633D01*
X9031033Y12057401D01*
X8921983Y12079093D01*
X8896790Y12082830D01*
X8872208Y12085251D01*
X8846774Y12086500D01*
X7409226Y12086500D01*
X7383792Y12085251D01*
X7359210Y12082830D01*
X7334017Y12079093D01*
X7224966Y12057401D01*
X7176285Y12042633D01*
X7130865Y12023819D01*
X7086003Y11999839D01*
X6993553Y11938066D01*
X6973093Y11922892D01*
X6954000Y11907222D01*
X6935136Y11890124D01*
X6934016Y11889004D01*
X6273175Y11228163D01*
X6219866Y11196447D01*
X6157883Y11194011D01*
X6102249Y11221447D01*
X6066449Y11272104D01*
X6059158Y11333705D01*
X6066269Y11387713D01*
X6069466Y11412000D01*
X6049687Y11562236D01*
X5991698Y11702233D01*
X5899451Y11822451D01*
X5779233Y11914698D01*
X5639236Y11972687D01*
X5526720Y11987500D01*
X5451280Y11987500D01*
X5338764Y11972687D01*
X5198767Y11914698D01*
X5192213Y11909669D01*
X5166742Y11890124D01*
X5078549Y11822451D01*
X5073522Y11815900D01*
X4994641Y11713100D01*
X4986302Y11702233D01*
X4983142Y11694606D01*
X4983141Y11694603D01*
X4943094Y11597920D01*
X4928313Y11562236D01*
X4927235Y11554053D01*
X4927234Y11554047D01*
X4914457Y11456993D01*
X4908534Y11412000D01*
X4909612Y11403813D01*
X4909612Y11403812D01*
X4927234Y11269952D01*
X4927236Y11269944D01*
X4928313Y11261764D01*
X4931472Y11254137D01*
X4931473Y11254134D01*
X4983141Y11129396D01*
X4983144Y11129390D01*
X4986302Y11121767D01*
X4991326Y11115218D01*
X4991330Y11115213D01*
X5073522Y11008099D01*
X5073526Y11008094D01*
X5078549Y11001549D01*
X5085094Y10996526D01*
X5085099Y10996522D01*
X5192213Y10914330D01*
X5192218Y10914326D01*
X5198767Y10909302D01*
X5206390Y10906144D01*
X5206396Y10906141D01*
X5331134Y10854473D01*
X5331137Y10854472D01*
X5338764Y10851313D01*
X5346944Y10850236D01*
X5346952Y10850234D01*
X5447192Y10837038D01*
X5447194Y10837037D01*
X5451280Y10836500D01*
X5522598Y10836500D01*
X5526720Y10836500D01*
X5530807Y10837038D01*
X5631047Y10850234D01*
X5631053Y10850235D01*
X5639236Y10851313D01*
X5646865Y10854473D01*
X5705181Y10878628D01*
X5774940Y10886364D01*
X5838015Y10855580D01*
X5874834Y10795827D01*
X5873974Y10725646D01*
X5866498Y10701002D01*
X5866490Y10700973D01*
X5865598Y10698030D01*
X5843907Y10588980D01*
X5840171Y10563790D01*
X5840020Y10562263D01*
X5840019Y10562250D01*
X5839137Y10553288D01*
X5837750Y10539209D01*
X5837674Y10537678D01*
X5837674Y10537668D01*
X5837336Y10530787D01*
X5836500Y10513774D01*
X5836500Y6409226D01*
X5837750Y6383791D01*
X5837899Y6382275D01*
X5837901Y6382252D01*
X5840019Y6360750D01*
X5840171Y6359210D01*
X5840395Y6357697D01*
X5840398Y6357676D01*
X5843676Y6335576D01*
X5843679Y6335556D01*
X5843907Y6334022D01*
X5844209Y6332500D01*
X5844213Y6332481D01*
X5846934Y6318800D01*
X5841987Y6251772D01*
X5803284Y6196823D01*
X5741839Y6169588D01*
X5675135Y6177816D01*
X5639236Y6192687D01*
X5526720Y6207500D01*
X5451280Y6207500D01*
X5338764Y6192687D01*
X5198767Y6134698D01*
X5192213Y6129669D01*
X5161620Y6106194D01*
X5078549Y6042451D01*
X5073522Y6035900D01*
X4996207Y5935141D01*
X4986302Y5922233D01*
X4983142Y5914606D01*
X4983141Y5914603D01*
X4950691Y5836262D01*
X4928313Y5782236D01*
X4927235Y5774053D01*
X4927234Y5774047D01*
X4914551Y5677707D01*
X4908534Y5632000D01*
X4909612Y5623812D01*
X4927234Y5489952D01*
X4927236Y5489944D01*
X4928313Y5481764D01*
X4931472Y5474137D01*
X4931473Y5474134D01*
X4983141Y5349396D01*
X4983144Y5349390D01*
X4986302Y5341767D01*
X4991326Y5335218D01*
X4991330Y5335213D01*
X5073522Y5228099D01*
X5073526Y5228094D01*
X5078549Y5221549D01*
X5085094Y5216526D01*
X5085099Y5216522D01*
X5192213Y5134330D01*
X5192218Y5134326D01*
X5198767Y5129302D01*
X5206390Y5126144D01*
X5206396Y5126141D01*
X5331134Y5074473D01*
X5331137Y5074472D01*
X5338764Y5071313D01*
X5346944Y5070236D01*
X5346952Y5070234D01*
X5447192Y5057038D01*
X5447194Y5057037D01*
X5451280Y5056500D01*
X5522598Y5056500D01*
X5526720Y5056500D01*
X5530807Y5057038D01*
X5631047Y5070234D01*
X5631053Y5070235D01*
X5639236Y5071313D01*
X5659793Y5079828D01*
X5771603Y5126141D01*
X5771606Y5126142D01*
X5779233Y5129302D01*
X5801825Y5146637D01*
X5892900Y5216522D01*
X5899451Y5221549D01*
X5991698Y5341767D01*
X6049687Y5481764D01*
X6067125Y5614219D01*
X6094648Y5677707D01*
X6151546Y5717086D01*
X6220659Y5720482D01*
X6281142Y5686869D01*
X7062141Y4905870D01*
X7063266Y4904849D01*
X7063279Y4904838D01*
X7079879Y4889792D01*
X7079903Y4889770D01*
X7081010Y4888768D01*
X7082179Y4887807D01*
X7082196Y4887794D01*
X7098907Y4874080D01*
X7100093Y4873107D01*
X7101309Y4872204D01*
X7101331Y4872188D01*
X7119303Y4858859D01*
X7119319Y4858847D01*
X7120547Y4857937D01*
X7121798Y4857100D01*
X7121828Y4857080D01*
X7210424Y4797882D01*
X7210432Y4797876D01*
X7213005Y4796158D01*
X7215732Y4794699D01*
X7215746Y4794692D01*
X7255125Y4773643D01*
X7255135Y4773637D01*
X7257867Y4772178D01*
X7260725Y4770994D01*
X7260738Y4770988D01*
X7300426Y4754548D01*
X7300444Y4754541D01*
X7303282Y4753366D01*
X7306211Y4752477D01*
X7306235Y4752469D01*
X7349003Y4739497D01*
X7349010Y4739495D01*
X7351968Y4738598D01*
X7355001Y4737994D01*
X7355008Y4737993D01*
X7459483Y4717212D01*
X7459526Y4717204D01*
X7461022Y4716907D01*
X7462555Y4716679D01*
X7462576Y4716676D01*
X7484676Y4713398D01*
X7484697Y4713395D01*
X7486210Y4713171D01*
X7487736Y4713020D01*
X7487750Y4713019D01*
X7509252Y4710901D01*
X7509275Y4710899D01*
X7510791Y4710750D01*
X7512318Y4710674D01*
X7512331Y4710674D01*
X7534675Y4709576D01*
X7534684Y4709575D01*
X7536226Y4709500D01*
X9167237Y4709500D01*
X9168787Y4709500D01*
X9170330Y4709575D01*
X9170337Y4709576D01*
X9192686Y4710674D01*
X9192705Y4710675D01*
X9194223Y4710750D01*
X9195719Y4710897D01*
X9195755Y4710900D01*
X9217250Y4713018D01*
X9217251Y4713018D01*
X9218803Y4713171D01*
X9220336Y4713398D01*
X9220349Y4713400D01*
X9242434Y4716676D01*
X9242441Y4716677D01*
X9243990Y4716907D01*
X9245492Y4717205D01*
X9245528Y4717212D01*
X9287167Y4725494D01*
X9287185Y4725498D01*
X9290204Y4726099D01*
X9293168Y4726998D01*
X9335924Y4739966D01*
X9335939Y4739971D01*
X9338885Y4740865D01*
X9341735Y4742045D01*
X9341742Y4742048D01*
X9381444Y4758493D01*
X9384305Y4759678D01*
X9410433Y4773643D01*
X9426443Y4782200D01*
X9426449Y4782204D01*
X9429170Y4783658D01*
X9457829Y4802807D01*
X9497154Y4835081D01*
X9531919Y4869846D01*
X9564194Y4909173D01*
X9569739Y4917472D01*
X9581618Y4935250D01*
X9581622Y4935257D01*
X9583342Y4937831D01*
X9607319Y4982691D01*
X9626132Y5028109D01*
X9640900Y5076789D01*
X9650093Y5123004D01*
X9653830Y5148197D01*
X9656251Y5172779D01*
X9657500Y5198213D01*
X9657500Y5560774D01*
X9656251Y5586208D01*
X9653830Y5610790D01*
X9650093Y5635983D01*
X9628401Y5745033D01*
X9613633Y5793714D01*
X9594819Y5839134D01*
X9570839Y5883996D01*
X9509066Y5976446D01*
X9493892Y5996906D01*
X9478222Y6015999D01*
X9461124Y6034863D01*
X9066863Y6429124D01*
X9047999Y6446222D01*
X9028906Y6461892D01*
X9008446Y6477066D01*
X8915996Y6538839D01*
X8871134Y6562819D01*
X8825714Y6581633D01*
X8826048Y6582441D01*
X8774231Y6618919D01*
X8746982Y6680370D01*
X8755208Y6747087D01*
X8796744Y6847364D01*
X8799904Y6854993D01*
X8819126Y7001000D01*
X8799904Y7147007D01*
X8783645Y7186257D01*
X8776073Y7212014D01*
X8774126Y7222767D01*
X8607046Y7650187D01*
X8598400Y7696060D01*
X8598400Y7822569D01*
X8607991Y7870787D01*
X8635305Y7911664D01*
X9992381Y9268740D01*
X10054204Y9302658D01*
X10124570Y9298046D01*
X10181438Y9256349D01*
X10264076Y9148653D01*
X10264080Y9148648D01*
X10269103Y9142103D01*
X10275648Y9137080D01*
X10275652Y9137077D01*
X10379386Y9057479D01*
X10379390Y9057476D01*
X10385937Y9052453D01*
X10393554Y9049297D01*
X10393561Y9049294D01*
X10514367Y8999254D01*
X10514372Y8999252D01*
X10521993Y8996096D01*
X10530174Y8995018D01*
X10530178Y8995018D01*
X10659812Y8977952D01*
X10668000Y8976874D01*
X10676188Y8977952D01*
X10805821Y8995018D01*
X10805823Y8995018D01*
X10814007Y8996096D01*
X10821629Y8999253D01*
X10821632Y8999254D01*
X10942438Y9049294D01*
X10942441Y9049296D01*
X10950063Y9052453D01*
X11066897Y9142103D01*
X11156547Y9258937D01*
X11212904Y9394993D01*
X11232126Y9541000D01*
X11227707Y9574557D01*
X11226658Y9588330D01*
X11226561Y9592887D01*
X11226465Y9597432D01*
X11218536Y9644802D01*
X11217886Y9649159D01*
X11213983Y9678811D01*
X11213982Y9678811D01*
X11212904Y9687007D01*
X11210847Y9691969D01*
X11209953Y9696089D01*
X11206490Y9716783D01*
X11180204Y9873849D01*
X11184474Y9933057D01*
X11215381Y9983740D01*
X11418052Y10186411D01*
X11471360Y10218127D01*
X11533343Y10220563D01*
X11588976Y10193128D01*
X11624777Y10142473D01*
X11632069Y10080873D01*
X11628952Y10057193D01*
X11628952Y10057188D01*
X11627874Y10049000D01*
X11628952Y10040812D01*
X11642506Y9937852D01*
X11647096Y9902993D01*
X11650252Y9895372D01*
X11650254Y9895367D01*
X11700294Y9774561D01*
X11700297Y9774554D01*
X11703453Y9766937D01*
X11708476Y9760390D01*
X11708479Y9760386D01*
X11788077Y9656652D01*
X11788080Y9656648D01*
X11793103Y9650103D01*
X11799648Y9645080D01*
X11799652Y9645077D01*
X11903383Y9565481D01*
X11903388Y9565477D01*
X11909937Y9560453D01*
X11917559Y9557295D01*
X11917569Y9557290D01*
X11954138Y9542142D01*
X11961467Y9538828D01*
X12001781Y9519025D01*
X12001804Y9519015D01*
X12005661Y9517121D01*
X12009749Y9515766D01*
X12009751Y9515766D01*
X12326290Y9410906D01*
X12349670Y9400416D01*
X12383547Y9380856D01*
X12392809Y9374955D01*
X12416602Y9358296D01*
X12416610Y9358291D01*
X12425634Y9351974D01*
X12436272Y9349122D01*
X12440173Y9347304D01*
X12444201Y9345837D01*
X12453739Y9340332D01*
X12464583Y9338419D01*
X12464594Y9338416D01*
X12493203Y9333372D01*
X12503930Y9330994D01*
X12531962Y9323483D01*
X12531966Y9323482D01*
X12542609Y9320631D01*
X12553583Y9321591D01*
X12553585Y9321591D01*
X12559470Y9322106D01*
X12619684Y9312568D01*
X12668372Y9275879D01*
X12694136Y9220627D01*
X12690945Y9159746D01*
X12659546Y9107490D01*
X10947669Y7395613D01*
X10939565Y7388186D01*
X10917327Y7369527D01*
X10917325Y7369524D01*
X10908883Y7362441D01*
X10888851Y7327746D01*
X10882953Y7318488D01*
X10859973Y7285669D01*
X10857120Y7275025D01*
X10855309Y7271141D01*
X10853840Y7267105D01*
X10848332Y7257564D01*
X10846418Y7246712D01*
X10846418Y7246711D01*
X10841376Y7218116D01*
X10838997Y7207385D01*
X10836678Y7198728D01*
X10828630Y7168694D01*
X10829590Y7157716D01*
X10829590Y7157712D01*
X10832121Y7128793D01*
X10832600Y7117811D01*
X10832600Y6680058D01*
X10823953Y6634185D01*
X10796056Y6562819D01*
X10674467Y6251772D01*
X10656874Y6206767D01*
X10655788Y6200772D01*
X10654924Y6196004D01*
X10647352Y6170256D01*
X10634257Y6138642D01*
X10634254Y6138631D01*
X10631096Y6131007D01*
X10630018Y6122824D01*
X10630017Y6122818D01*
X10616108Y6017163D01*
X10611874Y5985000D01*
X10612952Y5976812D01*
X10624831Y5886576D01*
X10631096Y5838993D01*
X10634252Y5831372D01*
X10634254Y5831367D01*
X10684294Y5710561D01*
X10684297Y5710554D01*
X10687453Y5702937D01*
X10692476Y5696390D01*
X10692479Y5696386D01*
X10772077Y5592652D01*
X10772080Y5592648D01*
X10777103Y5586103D01*
X10783648Y5581080D01*
X10783652Y5581077D01*
X10887386Y5501479D01*
X10887390Y5501476D01*
X10893937Y5496453D01*
X10901554Y5493297D01*
X10901561Y5493294D01*
X11022367Y5443254D01*
X11022372Y5443252D01*
X11029993Y5440096D01*
X11038174Y5439018D01*
X11038178Y5439018D01*
X11167812Y5421952D01*
X11176000Y5420874D01*
X11184188Y5421952D01*
X11313821Y5439018D01*
X11313823Y5439018D01*
X11322007Y5440096D01*
X11329629Y5443253D01*
X11329632Y5443254D01*
X11450438Y5493294D01*
X11450441Y5493296D01*
X11458063Y5496453D01*
X11574897Y5586103D01*
X11664547Y5702937D01*
X11720904Y5838993D01*
X11740126Y5985000D01*
X11723406Y6112000D01*
X35581968Y6112000D01*
X35582506Y6106194D01*
X35600316Y5913984D01*
X35600318Y5913972D01*
X35600855Y5908179D01*
X35602449Y5902575D01*
X35602450Y5902572D01*
X35655276Y5716906D01*
X35655278Y5716899D01*
X35656872Y5711299D01*
X35659470Y5706081D01*
X35659471Y5706079D01*
X35745514Y5533281D01*
X35745517Y5533274D01*
X35748112Y5528065D01*
X35751618Y5523421D01*
X35751622Y5523416D01*
X35867955Y5369365D01*
X35867963Y5369355D01*
X35871468Y5364715D01*
X35875765Y5360797D01*
X35875773Y5360789D01*
X36018435Y5230736D01*
X36018439Y5230732D01*
X36022738Y5226814D01*
X36027681Y5223752D01*
X36027691Y5223746D01*
X36191812Y5122127D01*
X36191817Y5122124D01*
X36196773Y5119056D01*
X36202208Y5116950D01*
X36202211Y5116949D01*
X36382210Y5047216D01*
X36382221Y5047212D01*
X36387644Y5045112D01*
X36393357Y5044043D01*
X36393368Y5044041D01*
X36583126Y5008570D01*
X36583131Y5008569D01*
X36588853Y5007500D01*
X36787719Y5007500D01*
X36793547Y5007500D01*
X36799269Y5008569D01*
X36799273Y5008570D01*
X36989031Y5044041D01*
X36989039Y5044043D01*
X36994756Y5045112D01*
X37000181Y5047213D01*
X37000189Y5047216D01*
X37180188Y5116949D01*
X37185627Y5119056D01*
X37202175Y5129302D01*
X37354708Y5223746D01*
X37354712Y5223749D01*
X37359662Y5226814D01*
X37478570Y5335213D01*
X37506626Y5360789D01*
X37506629Y5360792D01*
X37510932Y5364715D01*
X37554156Y5421952D01*
X37630777Y5523416D01*
X37634288Y5528065D01*
X37725528Y5711299D01*
X37781545Y5908179D01*
X37789878Y5998100D01*
X37799894Y6106194D01*
X37800432Y6112000D01*
X37781545Y6315821D01*
X37725528Y6512701D01*
X37634288Y6695935D01*
X37510932Y6859285D01*
X37359662Y6997186D01*
X37185627Y7104944D01*
X36994756Y7178888D01*
X36793547Y7216500D01*
X36588853Y7216500D01*
X36387644Y7178888D01*
X36196773Y7104944D01*
X36191812Y7101872D01*
X36028898Y7001000D01*
X36022738Y6997186D01*
X36018435Y6993263D01*
X35875773Y6863210D01*
X35875770Y6863207D01*
X35871468Y6859285D01*
X35867959Y6854638D01*
X35867955Y6854634D01*
X35786740Y6747087D01*
X35748112Y6695935D01*
X35745515Y6690719D01*
X35745514Y6690718D01*
X35740207Y6680060D01*
X35656872Y6512701D01*
X35655277Y6507096D01*
X35655276Y6507093D01*
X35620632Y6385331D01*
X35600855Y6315821D01*
X35600317Y6310025D01*
X35600316Y6310015D01*
X35587366Y6170256D01*
X35581968Y6112000D01*
X11723406Y6112000D01*
X11720904Y6131007D01*
X11704645Y6170257D01*
X11697073Y6196014D01*
X11695126Y6206767D01*
X11528046Y6634187D01*
X11519400Y6680060D01*
X11519400Y6943872D01*
X11528991Y6992090D01*
X11556305Y7032967D01*
X11694048Y7170710D01*
X11755871Y7204628D01*
X11826237Y7200016D01*
X11883104Y7158320D01*
X11920103Y7110103D01*
X11926648Y7105080D01*
X11926652Y7105077D01*
X12030386Y7025479D01*
X12030390Y7025476D01*
X12036937Y7020453D01*
X12044554Y7017297D01*
X12044561Y7017294D01*
X12165367Y6967254D01*
X12165372Y6967252D01*
X12172993Y6964096D01*
X12181174Y6963018D01*
X12181178Y6963018D01*
X12310812Y6945952D01*
X12319000Y6944874D01*
X12327188Y6945952D01*
X12456821Y6963018D01*
X12456823Y6963018D01*
X12465007Y6964096D01*
X12472629Y6967253D01*
X12472632Y6967254D01*
X12593438Y7017294D01*
X12593441Y7017296D01*
X12601063Y7020453D01*
X12717897Y7110103D01*
X12807547Y7226937D01*
X12823804Y7266184D01*
X12836660Y7289748D01*
X12842891Y7298736D01*
X13026977Y7719108D01*
X13053300Y7757659D01*
X13922936Y8627295D01*
X13959908Y8652000D01*
X35581968Y8652000D01*
X35582506Y8646194D01*
X35600316Y8453984D01*
X35600318Y8453972D01*
X35600855Y8448179D01*
X35602449Y8442575D01*
X35602450Y8442572D01*
X35655276Y8256906D01*
X35655278Y8256899D01*
X35656872Y8251299D01*
X35659470Y8246081D01*
X35659471Y8246079D01*
X35745514Y8073281D01*
X35745517Y8073274D01*
X35748112Y8068065D01*
X35751618Y8063421D01*
X35751622Y8063416D01*
X35867955Y7909365D01*
X35867963Y7909355D01*
X35871468Y7904715D01*
X35875765Y7900797D01*
X35875773Y7900789D01*
X36018435Y7770736D01*
X36018439Y7770732D01*
X36022738Y7766814D01*
X36027681Y7763752D01*
X36027691Y7763746D01*
X36191812Y7662127D01*
X36191817Y7662124D01*
X36196773Y7659056D01*
X36202208Y7656950D01*
X36202211Y7656949D01*
X36382210Y7587216D01*
X36382221Y7587212D01*
X36387644Y7585112D01*
X36393357Y7584043D01*
X36393368Y7584041D01*
X36583126Y7548570D01*
X36583131Y7548569D01*
X36588853Y7547500D01*
X36787719Y7547500D01*
X36793547Y7547500D01*
X36799269Y7548569D01*
X36799273Y7548570D01*
X36989031Y7584041D01*
X36989039Y7584043D01*
X36994756Y7585112D01*
X37000181Y7587213D01*
X37000189Y7587216D01*
X37180188Y7656949D01*
X37185627Y7659056D01*
X37190587Y7662127D01*
X37354708Y7763746D01*
X37354712Y7763749D01*
X37359662Y7766814D01*
X37478072Y7874759D01*
X37506626Y7900789D01*
X37506629Y7900792D01*
X37510932Y7904715D01*
X37634288Y8068065D01*
X37725528Y8251299D01*
X37781545Y8448179D01*
X37800432Y8652000D01*
X37799301Y8664200D01*
X37782083Y8850015D01*
X37781545Y8855821D01*
X37725528Y9052701D01*
X37634288Y9235935D01*
X37510932Y9399285D01*
X37359662Y9537186D01*
X37185627Y9644944D01*
X36994756Y9718888D01*
X36793547Y9756500D01*
X36588853Y9756500D01*
X36387644Y9718888D01*
X36196773Y9644944D01*
X36191812Y9641872D01*
X36028898Y9541000D01*
X36022738Y9537186D01*
X35987596Y9505150D01*
X35875773Y9403210D01*
X35875770Y9403207D01*
X35871468Y9399285D01*
X35867959Y9394638D01*
X35867955Y9394634D01*
X35795016Y9298046D01*
X35748112Y9235935D01*
X35656872Y9052701D01*
X35655277Y9047096D01*
X35655276Y9047093D01*
X35640460Y8995018D01*
X35600855Y8855821D01*
X35600317Y8850025D01*
X35600316Y8850015D01*
X35583054Y8663721D01*
X35581968Y8652000D01*
X13959908Y8652000D01*
X13963813Y8654609D01*
X14012031Y8664200D01*
X20274107Y8664200D01*
X20285089Y8663721D01*
X20314008Y8661190D01*
X20314012Y8661190D01*
X20324990Y8660230D01*
X20335636Y8663082D01*
X20335639Y8663083D01*
X20363681Y8670597D01*
X20374412Y8672976D01*
X20403007Y8678018D01*
X20403008Y8678018D01*
X20413860Y8679932D01*
X20423401Y8685440D01*
X20427437Y8686909D01*
X20431321Y8688720D01*
X20441965Y8691573D01*
X20474784Y8714553D01*
X20484042Y8720451D01*
X20518737Y8740483D01*
X20544479Y8771161D01*
X20551905Y8779265D01*
X22269510Y10496869D01*
X22331333Y10530787D01*
X22401699Y10526175D01*
X22458566Y10484479D01*
X22514103Y10412103D01*
X22520648Y10407080D01*
X22520652Y10407077D01*
X22624386Y10327479D01*
X22624390Y10327476D01*
X22630937Y10322453D01*
X22638554Y10319297D01*
X22638561Y10319294D01*
X22759367Y10269254D01*
X22759372Y10269252D01*
X22766993Y10266096D01*
X22775174Y10265018D01*
X22775178Y10265018D01*
X22904812Y10247952D01*
X22913000Y10246874D01*
X22921188Y10247952D01*
X23050821Y10265018D01*
X23050823Y10265018D01*
X23059007Y10266096D01*
X23066629Y10269253D01*
X23066632Y10269254D01*
X23187438Y10319294D01*
X23187441Y10319296D01*
X23195063Y10322453D01*
X23311897Y10412103D01*
X23401547Y10528937D01*
X23411634Y10553290D01*
X23423559Y10573655D01*
X23422769Y10574167D01*
X23425928Y10579053D01*
X23429535Y10583640D01*
X23644250Y10994564D01*
X23666828Y11025305D01*
X23833523Y11192000D01*
X35581968Y11192000D01*
X35582506Y11186194D01*
X35600316Y10993984D01*
X35600318Y10993972D01*
X35600855Y10988179D01*
X35602449Y10982575D01*
X35602450Y10982572D01*
X35655276Y10796906D01*
X35655278Y10796899D01*
X35656872Y10791299D01*
X35659470Y10786081D01*
X35659471Y10786079D01*
X35745514Y10613281D01*
X35745517Y10613274D01*
X35748112Y10608065D01*
X35751618Y10603421D01*
X35751622Y10603416D01*
X35867955Y10449365D01*
X35867963Y10449355D01*
X35871468Y10444715D01*
X35875765Y10440797D01*
X35875773Y10440789D01*
X36018435Y10310736D01*
X36018439Y10310732D01*
X36022738Y10306814D01*
X36027681Y10303752D01*
X36027691Y10303746D01*
X36191812Y10202127D01*
X36191817Y10202124D01*
X36196773Y10199056D01*
X36202208Y10196950D01*
X36202211Y10196949D01*
X36382210Y10127216D01*
X36382221Y10127212D01*
X36387644Y10125112D01*
X36393357Y10124043D01*
X36393368Y10124041D01*
X36583126Y10088570D01*
X36583131Y10088569D01*
X36588853Y10087500D01*
X36787719Y10087500D01*
X36793547Y10087500D01*
X36799269Y10088569D01*
X36799273Y10088570D01*
X36989031Y10124041D01*
X36989039Y10124043D01*
X36994756Y10125112D01*
X37000181Y10127213D01*
X37000189Y10127216D01*
X37180188Y10196949D01*
X37185627Y10199056D01*
X37275366Y10254620D01*
X37354708Y10303746D01*
X37354712Y10303749D01*
X37359662Y10306814D01*
X37425546Y10366875D01*
X37506626Y10440789D01*
X37506629Y10440792D01*
X37510932Y10444715D01*
X37540961Y10484479D01*
X37593955Y10554656D01*
X37634288Y10608065D01*
X37725528Y10791299D01*
X37781545Y10988179D01*
X37782137Y10994562D01*
X37799894Y11186194D01*
X37800432Y11192000D01*
X37781545Y11395821D01*
X37725528Y11592701D01*
X37634288Y11775935D01*
X37510932Y11939285D01*
X37359662Y12077186D01*
X37185627Y12184944D01*
X36994756Y12258888D01*
X36793547Y12296500D01*
X36588853Y12296500D01*
X36387644Y12258888D01*
X36196773Y12184944D01*
X36191812Y12181872D01*
X36031479Y12082598D01*
X36022738Y12077186D01*
X35985819Y12043530D01*
X35875773Y11943210D01*
X35875770Y11943207D01*
X35871468Y11939285D01*
X35867959Y11934638D01*
X35867955Y11934634D01*
X35783239Y11822451D01*
X35748112Y11775935D01*
X35745515Y11770719D01*
X35745514Y11770718D01*
X35734548Y11748695D01*
X35656872Y11592701D01*
X35655277Y11587096D01*
X35655276Y11587093D01*
X35632134Y11505756D01*
X35600855Y11395821D01*
X35600317Y11390025D01*
X35600316Y11390015D01*
X35585319Y11228163D01*
X35581968Y11192000D01*
X23833523Y11192000D01*
X24174957Y11533434D01*
X24215834Y11560748D01*
X24264052Y11570339D01*
X27385033Y11570339D01*
X27422738Y11564565D01*
X27859565Y11427569D01*
X27859574Y11427566D01*
X27865129Y11425825D01*
X27870914Y11425132D01*
X27876612Y11423910D01*
X27876416Y11423000D01*
X27899244Y11417023D01*
X27915966Y11410096D01*
X27915973Y11410094D01*
X27923600Y11406935D01*
X27931784Y11405857D01*
X27931790Y11405856D01*
X28061419Y11388791D01*
X28069607Y11387713D01*
X28077795Y11388791D01*
X28087093Y11390015D01*
X28092839Y11390771D01*
X28207428Y11405857D01*
X28207430Y11405857D01*
X28215614Y11406935D01*
X28223236Y11410092D01*
X28223239Y11410093D01*
X28344045Y11460133D01*
X28344048Y11460135D01*
X28351670Y11463292D01*
X28468504Y11552942D01*
X28558154Y11669776D01*
X28614511Y11805832D01*
X28633733Y11951839D01*
X28614511Y12097846D01*
X28558154Y12233902D01*
X28468504Y12350736D01*
X28351670Y12440386D01*
X28215614Y12496743D01*
X28069607Y12515965D01*
X27923600Y12496743D01*
X27899247Y12486655D01*
X27876417Y12480694D01*
X27876616Y12479768D01*
X27870915Y12478544D01*
X27865128Y12477852D01*
X27567363Y12384469D01*
X27422739Y12339113D01*
X27385034Y12333339D01*
X24106472Y12333339D01*
X24080615Y12336020D01*
X24069822Y12338284D01*
X24037918Y12334307D01*
X24032618Y12333977D01*
X24032636Y12333770D01*
X24027439Y12333339D01*
X24022228Y12333339D01*
X24001369Y12329858D01*
X23996305Y12329119D01*
X23943479Y12322535D01*
X23936220Y12318986D01*
X23928253Y12317657D01*
X23881466Y12292337D01*
X23876869Y12289971D01*
X23838475Y12271202D01*
X23838472Y12271200D01*
X23829093Y12266615D01*
X23823382Y12260904D01*
X23816277Y12257059D01*
X23809206Y12249378D01*
X23780258Y12217932D01*
X23776652Y12214174D01*
X23127303Y11564826D01*
X23096559Y11542248D01*
X23006751Y11495322D01*
X22944422Y11481059D01*
X22883117Y11499227D01*
X22838624Y11545148D01*
X22822400Y11606996D01*
X22822400Y12655940D01*
X22831047Y12701813D01*
X22838719Y12721438D01*
X22998126Y13129232D01*
X23000072Y13139980D01*
X23007644Y13165739D01*
X23023904Y13204993D01*
X23043126Y13351000D01*
X23023904Y13497007D01*
X22967547Y13633063D01*
X22949719Y13656297D01*
X22924289Y13720651D01*
X22936676Y13788729D01*
X22983146Y13840000D01*
X23049682Y13859000D01*
X29084000Y13859000D01*
X29147000Y13842119D01*
X29193119Y13796000D01*
X29210000Y13733000D01*
X29210000Y13351000D01*
X49619500Y13351000D01*
X49682500Y13334119D01*
X49728619Y13288000D01*
X49745500Y13225000D01*
X49745500Y380500D01*
X49728619Y317500D01*
X49682500Y271381D01*
X49619500Y254500D01*
X380500Y254500D01*
X317500Y271381D01*
X271381Y317500D01*
X254500Y380500D01*
X254500Y19619500D01*
X271381Y19682500D01*
X317500Y19728619D01*
X380500Y19745500D01*
X20194000Y19745500D01*
X20257000Y19728619D01*
G37*
%TD.AperFunction*%
%TA.AperFunction,Conductor*%
G36*
X19028334Y11178716D02*
G01*
X19085202Y11137020D01*
X19117177Y11095350D01*
X19117179Y11095347D01*
X19122202Y11088802D01*
X19128747Y11083779D01*
X19128751Y11083776D01*
X19232485Y11004178D01*
X19232489Y11004175D01*
X19239036Y10999152D01*
X19246653Y10995996D01*
X19246660Y10995993D01*
X19367466Y10945953D01*
X19367471Y10945951D01*
X19375092Y10942795D01*
X19383273Y10941717D01*
X19383277Y10941717D01*
X19512911Y10924651D01*
X19521099Y10923573D01*
X19529287Y10924651D01*
X19658915Y10941716D01*
X19658919Y10941717D01*
X19667106Y10942795D01*
X19674733Y10945954D01*
X19674736Y10945955D01*
X19686814Y10950958D01*
X19706355Y10959052D01*
X19732108Y10966624D01*
X19736863Y10967485D01*
X19736868Y10967486D01*
X19742865Y10968573D01*
X20170284Y11135652D01*
X20216157Y11144299D01*
X20356212Y11144299D01*
X20404809Y11134550D01*
X20821320Y10960433D01*
X20821328Y10960430D01*
X20825125Y10958843D01*
X20829083Y10957768D01*
X20829103Y10957762D01*
X20854950Y10950748D01*
X20870161Y10945557D01*
X20899008Y10933608D01*
X20899015Y10933606D01*
X20906642Y10930447D01*
X20914826Y10929369D01*
X20914832Y10929368D01*
X20969846Y10922126D01*
X21033333Y10894603D01*
X21072712Y10837705D01*
X21076107Y10768592D01*
X21042494Y10708109D01*
X20052490Y9718105D01*
X20011613Y9690791D01*
X19963395Y9681200D01*
X17732127Y9681200D01*
X17674924Y9694933D01*
X17630191Y9733139D01*
X17607678Y9787489D01*
X17612294Y9846136D01*
X17643032Y9896295D01*
X18896146Y11149409D01*
X18957969Y11183327D01*
X19028334Y11178716D01*
G37*
%TD.AperFunction*%
%TD*%
%TA.AperFunction,Conductor*%
%TO.N,USB-VIN*%
G36*
X8871356Y11824579D02*
G01*
X8980406Y11802887D01*
X9025826Y11784073D01*
X9118276Y11722300D01*
X9137369Y11706630D01*
X9277630Y11566369D01*
X9293300Y11547276D01*
X9355073Y11454826D01*
X9373887Y11409406D01*
X9395579Y11300356D01*
X9398000Y11275774D01*
X9398000Y10854226D01*
X9395579Y10829644D01*
X9373887Y10720593D01*
X9355073Y10675173D01*
X9293300Y10582723D01*
X9277630Y10563630D01*
X9264369Y10550369D01*
X9245276Y10534699D01*
X9152826Y10472926D01*
X9107406Y10454112D01*
X9044150Y10441530D01*
X8998355Y10432421D01*
X8973774Y10430000D01*
X8401980Y10430000D01*
X8361426Y10437644D01*
X8361313Y10437244D01*
X8356851Y10438507D01*
X8356107Y10438647D01*
X8349767Y10441126D01*
X8339014Y10443073D01*
X8313257Y10450645D01*
X8274007Y10466904D01*
X8128000Y10486126D01*
X7981993Y10466904D01*
X7845937Y10410547D01*
X7729103Y10320897D01*
X7639453Y10204063D01*
X7636296Y10196441D01*
X7636294Y10196438D01*
X7586255Y10075634D01*
X7583096Y10068007D01*
X7582018Y10059821D01*
X7582018Y10059820D01*
X7576012Y10014207D01*
X7570462Y9999462D01*
X7493000Y9922000D01*
X7493000Y6874000D01*
X7608965Y6758034D01*
X7608970Y6758029D01*
X7885029Y6481970D01*
X7885034Y6481965D01*
X8001000Y6366000D01*
X8592774Y6366000D01*
X8617356Y6363579D01*
X8726406Y6341887D01*
X8771826Y6323073D01*
X8864276Y6261300D01*
X8883369Y6245630D01*
X9277630Y5851369D01*
X9293300Y5832276D01*
X9355073Y5739826D01*
X9373887Y5694406D01*
X9395579Y5585356D01*
X9398000Y5560774D01*
X9398000Y5198213D01*
X9395579Y5173631D01*
X9386386Y5127416D01*
X9367573Y5081998D01*
X9348425Y5053340D01*
X9313660Y5018575D01*
X9303709Y5011926D01*
X9285001Y4999426D01*
X9239581Y4980613D01*
X9220358Y4976789D01*
X9193367Y4971421D01*
X9168787Y4969000D01*
X7536226Y4969000D01*
X7511645Y4971421D01*
X7478388Y4978036D01*
X7402591Y4993112D01*
X7357176Y5011924D01*
X7264718Y5073703D01*
X7245635Y5089364D01*
X6216364Y6118635D01*
X6200703Y6137718D01*
X6138924Y6230176D01*
X6120112Y6275591D01*
X6098421Y6384645D01*
X6096000Y6409226D01*
X6096000Y10513774D01*
X6098421Y10538355D01*
X6120112Y10647405D01*
X6138926Y10692826D01*
X6141056Y10696013D01*
X6200699Y10785276D01*
X6216369Y10804369D01*
X7118630Y11706630D01*
X7137723Y11722300D01*
X7230173Y11784073D01*
X7275593Y11802887D01*
X7384644Y11824579D01*
X7409226Y11827000D01*
X8846774Y11827000D01*
X8871356Y11824579D01*
G37*
%TD.AperFunction*%
%TD*%
%TA.AperFunction,Conductor*%
%TO.N,/C-USBDM*%
G36*
X10775991Y10137296D02*
G01*
X10889857Y10023430D01*
X10893124Y10017088D01*
X10970524Y9554599D01*
X10969704Y9547980D01*
X10965400Y9542884D01*
X10959011Y9540968D01*
X10672175Y9540304D01*
X10667667Y9541197D01*
X10663851Y9543756D01*
X10459855Y9749095D01*
X10456473Y9756732D01*
X10459047Y9764681D01*
X10662476Y10017088D01*
X10758609Y10136366D01*
X10763892Y10140080D01*
X10770341Y10140425D01*
X10775991Y10137296D01*
G37*
%TD.AperFunction*%
%TD*%
%TA.AperFunction,Conductor*%
%TO.N,/C-USBDM*%
G36*
X19312538Y13755309D02*
G01*
X19318765Y13749048D01*
X19430116Y13482510D01*
X19431020Y13478000D01*
X19430116Y13473490D01*
X19318765Y13206951D01*
X19312538Y13200690D01*
X19303710Y13200564D01*
X18972189Y13330156D01*
X18828840Y13386192D01*
X18823437Y13390492D01*
X18821400Y13397089D01*
X18821400Y13558911D01*
X18823437Y13565508D01*
X18828840Y13569808D01*
X19303709Y13755435D01*
X19312538Y13755309D01*
G37*
%TD.AperFunction*%
%TD*%
%TA.AperFunction,Conductor*%
%TO.N,/C-USBDP*%
G36*
X11263508Y6592563D02*
G01*
X11267808Y6587160D01*
X11453435Y6112290D01*
X11453309Y6103461D01*
X11447048Y6097234D01*
X11180510Y5985884D01*
X11176000Y5984980D01*
X11171490Y5985884D01*
X10904949Y6097235D01*
X10898690Y6103461D01*
X10898564Y6112290D01*
X11084192Y6587160D01*
X11088492Y6592563D01*
X11095089Y6594600D01*
X11256911Y6594600D01*
X11263508Y6592563D01*
G37*
%TD.AperFunction*%
%TD*%
%TA.AperFunction,Conductor*%
%TO.N,/C-USBDP*%
G36*
X21721510Y13260715D02*
G01*
X21988048Y13149365D01*
X21994309Y13143138D01*
X21994435Y13134309D01*
X21808808Y12659440D01*
X21804508Y12654037D01*
X21797911Y12652000D01*
X21636089Y12652000D01*
X21629492Y12654037D01*
X21625192Y12659440D01*
X21569156Y12802789D01*
X21439564Y13134310D01*
X21439690Y13143138D01*
X21445951Y13149365D01*
X21712490Y13260715D01*
X21717000Y13261619D01*
X21721510Y13260715D01*
G37*
%TD.AperFunction*%
%TD*%
%TA.AperFunction,Conductor*%
%TO.N,/VIN_DET*%
G36*
X12692838Y7997264D02*
G01*
X12807264Y7882838D01*
X12810489Y7876732D01*
X12809708Y7869872D01*
X12605184Y7402831D01*
X12598852Y7396677D01*
X12590022Y7396700D01*
X12322812Y7506436D01*
X12318986Y7508986D01*
X12316436Y7512814D01*
X12206701Y7780022D01*
X12206677Y7788852D01*
X12212831Y7795184D01*
X12679872Y7999708D01*
X12686732Y8000489D01*
X12692838Y7997264D01*
G37*
%TD.AperFunction*%
%TD*%
%TA.AperFunction,Conductor*%
%TO.N,/VIN_DET*%
G36*
X22483510Y13350115D02*
G01*
X22750048Y13238765D01*
X22756309Y13232538D01*
X22756435Y13223709D01*
X22570808Y12748840D01*
X22566508Y12743437D01*
X22559911Y12741400D01*
X22398089Y12741400D01*
X22391492Y12743437D01*
X22387192Y12748840D01*
X22331156Y12892189D01*
X22201564Y13223710D01*
X22201690Y13232538D01*
X22207951Y13238765D01*
X22474490Y13350115D01*
X22479000Y13351019D01*
X22483510Y13350115D01*
G37*
%TD.AperFunction*%
%TD*%
%TA.AperFunction,Conductor*%
%TO.N,/CFG1*%
G36*
X12471754Y10161187D02*
G01*
X12478081Y10154873D01*
X12642886Y9759059D01*
X12643785Y9754562D01*
X12643785Y9595301D01*
X12641537Y9588406D01*
X12635658Y9584160D01*
X12628406Y9584195D01*
X12458943Y9640332D01*
X12087264Y9763457D01*
X12082028Y9766988D01*
X12079390Y9772730D01*
X12080122Y9779004D01*
X12189148Y10044490D01*
X12191690Y10048311D01*
X12195507Y10050860D01*
X12462816Y10161191D01*
X12471754Y10161187D01*
G37*
%TD.AperFunction*%
%TD*%
%TA.AperFunction,Conductor*%
%TO.N,/CFG1*%
G36*
X19971738Y12334110D02*
G01*
X19977965Y12327849D01*
X20089315Y12061311D01*
X20090219Y12056801D01*
X20089315Y12052291D01*
X19978999Y11788227D01*
X19974741Y11783034D01*
X19968330Y11781038D01*
X19961878Y11782893D01*
X19881077Y11834822D01*
X19879562Y11835982D01*
X19875799Y11839389D01*
X19871219Y11842622D01*
X19837648Y11860687D01*
X19705877Y11912197D01*
X19691091Y11914874D01*
X19689902Y11915155D01*
X19586906Y11945399D01*
X19540370Y11945399D01*
X19536110Y11946202D01*
X19488040Y11964993D01*
X19482637Y11969293D01*
X19480600Y11975890D01*
X19480600Y12137712D01*
X19482637Y12144309D01*
X19488040Y12148609D01*
X19962909Y12334236D01*
X19971738Y12334110D01*
G37*
%TD.AperFunction*%
%TD*%
%TA.AperFunction,Conductor*%
%TO.N,Net-(J2-CC1)*%
G36*
X11689205Y12445827D02*
G01*
X11953925Y12335234D01*
X11958900Y12331288D01*
X11961081Y12325325D01*
X11959827Y12319101D01*
X11787699Y11983310D01*
X11756163Y11921789D01*
X11697887Y11808104D01*
X11692770Y11803008D01*
X11685635Y11801887D01*
X11679204Y11805166D01*
X11566550Y11917820D01*
X11563945Y11921789D01*
X11406629Y12319667D01*
X11406733Y12328525D01*
X11413018Y12334771D01*
X11680204Y12445835D01*
X11684705Y12446731D01*
X11689205Y12445827D01*
G37*
%TD.AperFunction*%
%TD*%
%TA.AperFunction,Conductor*%
%TO.N,Net-(J2-CC1)*%
G36*
X8730160Y10013808D02*
G01*
X8735563Y10009508D01*
X8737600Y10002911D01*
X8737600Y9841089D01*
X8735563Y9834492D01*
X8730160Y9830192D01*
X8497230Y9739139D01*
X8255289Y9644564D01*
X8246461Y9644690D01*
X8240235Y9650949D01*
X8128883Y9917490D01*
X8127980Y9922000D01*
X8128884Y9926510D01*
X8165354Y10013808D01*
X8240234Y10193048D01*
X8246461Y10199309D01*
X8255290Y10199435D01*
X8730160Y10013808D01*
G37*
%TD.AperFunction*%
%TD*%
%TA.AperFunction,Conductor*%
%TO.N,Net-(J2-CC2)*%
G36*
X12323510Y13350115D02*
G01*
X12590048Y13238765D01*
X12596309Y13232538D01*
X12596435Y13223709D01*
X12410808Y12748840D01*
X12406508Y12743437D01*
X12399911Y12741400D01*
X12238089Y12741400D01*
X12231492Y12743437D01*
X12227192Y12748840D01*
X12171156Y12892189D01*
X12041564Y13223710D01*
X12041690Y13232538D01*
X12047951Y13238765D01*
X12314490Y13350115D01*
X12319000Y13351019D01*
X12323510Y13350115D01*
G37*
%TD.AperFunction*%
%TD*%
%TA.AperFunction,Conductor*%
%TO.N,Net-(J2-CC2)*%
G36*
X8342508Y7608563D02*
G01*
X8346808Y7603160D01*
X8532435Y7128290D01*
X8532309Y7119461D01*
X8526048Y7113234D01*
X8259510Y7001884D01*
X8255000Y7000980D01*
X8250490Y7001884D01*
X7983949Y7113235D01*
X7977690Y7119461D01*
X7977564Y7128290D01*
X8163192Y7603160D01*
X8167492Y7608563D01*
X8174089Y7610600D01*
X8335911Y7610600D01*
X8342508Y7608563D01*
G37*
%TD.AperFunction*%
%TD*%
%TA.AperFunction,Conductor*%
%TO.N,Net-(U3-VDCIA)*%
G36*
X27951219Y12229687D02*
G01*
X27957078Y12223589D01*
X28068723Y11956349D01*
X28069627Y11951839D01*
X28068723Y11947329D01*
X27957078Y11680088D01*
X27951219Y11673990D01*
X27942783Y11673434D01*
X27597517Y11781713D01*
X27468206Y11822268D01*
X27462277Y11826506D01*
X27460007Y11833432D01*
X27460007Y12070246D01*
X27462277Y12077172D01*
X27468206Y12081410D01*
X27942781Y12230243D01*
X27951219Y12229687D01*
G37*
%TD.AperFunction*%
%TD*%
%TA.AperFunction,Conductor*%
%TO.N,Net-(U3-VDCIA)*%
G36*
X23260324Y11325778D02*
G01*
X23427778Y11158324D01*
X23431070Y11151822D01*
X23429875Y11144634D01*
X23397527Y11082725D01*
X23199540Y10703817D01*
X23193180Y10698244D01*
X23184726Y10698411D01*
X22916812Y10808436D01*
X22912986Y10810986D01*
X22910436Y10814814D01*
X22800411Y11082726D01*
X22800244Y11091180D01*
X22805817Y11097540D01*
X23026114Y11212649D01*
X23246634Y11327875D01*
X23253822Y11329070D01*
X23260324Y11325778D01*
G37*
%TD.AperFunction*%
%TD*%
%TA.AperFunction,Conductor*%
%TO.N,/CFG3*%
G36*
X19780160Y11713624D02*
G01*
X19784740Y11710391D01*
X19786838Y11707970D01*
X19786844Y11707964D01*
X19787388Y11707337D01*
X19788085Y11706888D01*
X19788091Y11706884D01*
X19897406Y11636632D01*
X19897410Y11636630D01*
X19898109Y11636181D01*
X19898905Y11635947D01*
X19898910Y11635945D01*
X20023589Y11599337D01*
X20024393Y11599101D01*
X20025231Y11599101D01*
X20070929Y11599101D01*
X20075189Y11598298D01*
X20123259Y11579507D01*
X20128662Y11575207D01*
X20130699Y11568610D01*
X20130699Y11406788D01*
X20128662Y11400191D01*
X20123259Y11395891D01*
X19890329Y11304838D01*
X19648388Y11210263D01*
X19639560Y11210389D01*
X19633334Y11216648D01*
X19521982Y11483189D01*
X19521079Y11487699D01*
X19521983Y11492209D01*
X19566639Y11599101D01*
X19633333Y11758747D01*
X19639560Y11765008D01*
X19648389Y11765134D01*
X19780160Y11713624D01*
G37*
%TD.AperFunction*%
%TD*%
%TA.AperFunction,Conductor*%
%TO.N,/CFG3*%
G36*
X20934207Y11752825D02*
G01*
X20940325Y11746611D01*
X21051764Y11479861D01*
X21052668Y11475351D01*
X21051764Y11470841D01*
X20940518Y11204551D01*
X20936816Y11199757D01*
X20931212Y11197456D01*
X20925212Y11198265D01*
X20596603Y11335634D01*
X20452692Y11395795D01*
X20447466Y11400106D01*
X20445505Y11406590D01*
X20445505Y11568435D01*
X20447610Y11575130D01*
X20453167Y11579416D01*
X20925491Y11753082D01*
X20934207Y11752825D01*
G37*
%TD.AperFunction*%
%TD*%
M02*
